<?xml version="1.0" encoding="utf-8"?>
<!-- Generator: Adobe Illustrator 23.0.3, SVG Export Plug-In . SVG Version: 6.00 Build 0)  -->
<svg version="1.1" xmlns="http://www.w3.org/2000/svg" xmlns:xlink="http://www.w3.org/1999/xlink" x="0px" y="0px"
	 viewBox="0 0 770 305" style="enable-background:new 0 0 770 305;" xml:space="preserve">
<style type="text/css">
	.st0{fill:#444443;}
	.st1{fill:#F3CA91;stroke:#F3CA91;stroke-miterlimit:10;}
	.st2{display:none;}
	.st3{display:inline;}
	.st4{clip-path:url(#SVGID_2_);}
	.st5{clip-path:url(#SVGID_4_);fill:#505152;}
	.st6{display:inline;opacity:0.5;fill:#C8C7C9;}
	.st7{clip-path:url(#SVGID_6_);}
	.st8{clip-path:url(#SVGID_8_);fill:#505152;}
	.st9{fill:#4F5052;}
	.st10{fill:#939496;}
</style>
<g id="Your_design">
	<g>
		<path class="st0" d="M4.4,22v-9.5c9.8-0.8,19.9-4,30.4-9.7h8.8v114.7L85.8,84c6.7-5.4,10.1-8.9,10.1-10.7c0-1.1-0.7-1.9-2.2-2.5
			c-0.9-0.4-3.2-0.6-6.8-0.6h-6.1v-9.7h58.3v9.7c-6.5,0-11.7,0.7-15.6,2c-3.9,1.3-8.4,4-13.6,7.9l-33.2,25.6l39.2,42.8
			c3.8,4.1,6.8,7.1,9.2,8.7c2.4,1.7,4.8,2.9,7.1,3.5c2.4,0.7,6.1,1,11.1,1.1v9.7H82.3v-9.7H87c4.7,0,7.6-0.4,8.9-1.1
			c1.2-0.7,1.8-1.7,1.8-2.9c0-1.2-1.1-3-3.4-5.3c-0.4-0.4-0.8-0.8-1.3-1.4l-30.6-35l-18.9,14.3v15.1c0,5.6,0.4,9.3,1.3,11
			c0.8,1.8,2.2,3.1,4,4c1.8,0.9,5.3,1.4,10.4,1.4h4.3v9.7H4.4v-9.7c6.7-0.1,10.8-0.3,12.3-0.8c2.7-0.8,4.6-2.3,5.8-4.5
			c1.2-2.1,1.8-6.3,1.8-12.4V22H4.4z"/>
		<path class="st0" d="M152.1,22.3v-9.9c7.4-1,13.2-2.2,17.4-3.5c4.1-1.3,8.5-3.4,13-6.1h9v76c8.7-7.3,16.9-12.6,24.6-16
			c7.7-3.4,15.2-5.1,22.2-5.1c10.3,0,18.8,3.1,25.4,9.2c6.6,6.1,9.9,13.6,9.9,22.4v56.4c0,5.6,0.4,9.3,1.3,11c0.9,1.7,2.4,3,4.4,3.8
			c2.1,0.8,6.7,1.2,13.9,1.2v9.7h-59.4v-9.7h4.4c5.6,0,9.3-0.4,11-1.3c1.8-0.9,3-2.3,3.9-4.4c0.8-2,1.2-6.2,1.2-12.6v-39.2
			c0-8.7-0.3-14.3-0.9-16.9c-1.1-4.4-3.5-8-7.1-10.7c-3.6-2.7-8.2-4-13.8-4c-6.3,0-12.9,1.6-19.7,4.7c-6.9,3.1-14,7.8-21.3,14v57.6
			c0,4.3,0.4,7.2,1.1,8.6c0.8,1.5,2,2.5,3.8,3.2c1.8,0.7,5.3,1,10.6,1h4.7v9.7h-59.5v-9.7h3.6c5.6,0,9.7-0.7,12.2-2.1
			c1.4-0.7,2.4-2,3-4c0.6-2,0.9-7.5,0.9-16.6V22.3H152.1z"/>
		<path class="st0" d="M365.5,57.8c11.3,0,21,2.3,29.3,7c8.2,4.7,14.7,11.5,19.5,20.5c4.8,9,7.1,19.2,7.1,30.7s-2.4,21.7-7.3,30.7
			c-4.9,9-11.5,15.8-19.9,20.5c-8.4,4.7-18.4,7.1-30.1,7.1c-18.5,0-32.5-5.8-41.8-17.4c-9.3-11.6-14-25.2-14-40.8
			c0-11.4,2.4-21.6,7.2-30.4c4.8-8.9,11.6-15.7,20.3-20.6C344.6,60.2,354.5,57.8,365.5,57.8z M364.6,68.9c-8.7,0-16.1,3.4-22.2,10.3
			c-7.7,8.6-11.5,21.1-11.5,37.5c0,15.8,3.3,27.8,9.8,36.1c5.9,7.4,13.9,11,24,11c6.5,0,12.3-1.7,17.4-5.2
			c5.1-3.4,9.2-8.9,12.4-16.5c3.1-7.5,4.7-16.4,4.7-26.6c0-10-1.7-18.9-5.1-26.8c-2.6-6.3-6.5-11.2-11.8-14.7
			C377.1,70.6,371.2,68.9,364.6,68.9z"/>
		<path class="st0" d="M438,22v-9.5c10.4-0.8,20.6-4,30.5-9.7h8.5v141.5c0,6,0.4,9.7,1.1,11.3c1,2.1,2.5,3.7,4.4,4.7
			c1.9,1,5.6,1.5,11,1.5h3.7v9.7H438v-9.7h6c3.8,0,6.6-0.6,8.4-1.7c1.9-1.1,3.2-2.7,4-4.7c0.8-2,1.2-5.9,1.2-11.9V22H438z"/>
		<path class="st0" d="M509,76.9v-9.5c6.4-0.8,11.7-1.8,16-3.2c4.3-1.4,9.3-3.5,14.8-6.5h8.4v92.2c0,3.2,0.5,5.6,1.4,7.2
			c0.9,1.6,2.2,2.8,3.9,3.5c1.6,0.7,4.7,1.1,9,1.1h5.4v9.7H509v-9.7h4.7c5.1,0,8.6-0.5,10.3-1.4c1.8-0.9,3-2.2,3.7-3.9
			c0.7-1.7,1.1-5.6,1.1-11.8V76.9H509z M538.2,5.9c3.7,0,6.8,1.3,9.4,3.9c2.6,2.6,3.9,5.7,3.9,9.4s-1.3,6.8-3.9,9.4
			c-2.6,2.6-5.7,3.9-9.4,3.9s-6.8-1.3-9.4-3.9c-2.6-2.6-3.9-5.7-3.9-9.4s1.3-6.8,3.9-9.4C531.3,7.2,534.5,5.9,538.2,5.9z"/>
		<path class="st0" d="M579.8,60.5h19.7V43.3c0-11.9,3.9-21.6,11.8-29.1c7.9-7.5,18.1-11.3,30.7-11.3c8.4,0,15,1.8,19.7,5.3
			c4.7,3.5,7.1,7.4,7.1,11.5c0,2.8-0.9,5.1-2.8,7c-1.9,1.9-4.2,2.8-7.1,2.8c-2.5,0-4.7-0.5-6.6-1.4c-1.8-0.9-4.7-3.2-8.5-6.9
			c-4.1-3.8-7.9-5.7-11.6-5.7c-2.5,0-4.8,0.8-6.8,2.4c-2,1.6-3.6,3.9-4.7,6.9c-1.1,3-1.7,7.7-1.7,14v22h21.6v11.7H619v74.6
			c0,5.1,0.4,8.6,1.1,10.3c0.8,1.7,1.9,2.9,3.4,3.6c1.5,0.7,5.1,1,10.7,1h4.7v9.7h-59.2v-9.7h3.6c6.1,0,9.9-0.4,11.6-1.1
			c1.6-0.8,2.8-2,3.6-3.7c0.7-1.7,1.1-5.7,1-11.8V72.2h-19.7V60.5z"/>
		<path class="st0" d="M713.8,57.8c11.3,0,21,2.3,29.3,7c8.2,4.7,14.7,11.5,19.5,20.5c4.7,9,7.1,19.2,7.1,30.7s-2.4,21.7-7.3,30.7
			c-4.9,9-11.5,15.8-19.9,20.5c-8.4,4.7-18.4,7.1-30.1,7.1c-18.5,0-32.5-5.8-41.8-17.4c-9.3-11.6-14-25.2-14-40.8
			c0-11.4,2.4-21.6,7.2-30.4c4.8-8.9,11.6-15.7,20.3-20.6C692.9,60.2,702.8,57.8,713.8,57.8z M712.9,68.9c-8.7,0-16.1,3.4-22.2,10.3
			c-7.7,8.6-11.5,21.1-11.5,37.5c0,15.8,3.3,27.8,9.8,36.1c5.9,7.4,13.9,11,24,11c6.5,0,12.3-1.7,17.4-5.2
			c5.1-3.4,9.2-8.9,12.4-16.5c3.1-7.5,4.7-16.4,4.7-26.6c0-10-1.7-18.9-5.1-26.8c-2.6-6.3-6.5-11.2-11.8-14.7
			C725.4,70.6,719.5,68.9,712.9,68.9z"/>
	</g>
	<g>
		<path class="st1" d="M386,257.1c2.5-11.8,4.5-21.3,6.1-28.4c1.5-7.1,2.7-12.6,3.5-16.4c0.9-4.5,1.5-7.6,1.9-9.3
			c0.2-1.2,0.3-2.4,0.4-3.5c0.1-1,0.2-2.1,0.2-3.2s-0.1-2.1-0.3-3c0.5-0.3,1-0.6,1.5-0.8c0.5-0.2,1.1-0.4,1.6-0.5
			c0.6-0.2,1.3-0.4,1.9-0.5c0.6-0.1,1.2-0.2,1.7-0.2c0.5,0,0.9,0,1.3,0.1c0.4,0.1,0.7,0.3,0.8,0.6c0.3,0.3,0.5,1,0.5,1.9
			c0,1-0.1,1.9-0.2,3c-0.2,1.2-0.5,2.5-0.8,3.9c-0.7,2.7-1.6,6.7-2.8,11.9c-1,4.4-2.4,10.4-4.2,18c-1.7,7.6-3.9,17.1-6.6,28.7
			c-0.3,0.3-0.6,0.5-1,0.7c-0.4,0.1-0.8,0.2-1.1,0.2c-0.4,0-0.8,0-1.3-0.1c-0.4-0.1-0.8-0.3-1.2-0.6c-0.3-0.3-0.7-0.6-1-1
			S386.2,257.8,386,257.1z"/>
		<path class="st1" d="M450.6,239.6c-0.8,1.3-1.8,2.9-3.1,4.7c-1.3,1.9-2.6,3.8-3.9,5.6c-1.3,1.9-2.7,3.6-3.9,5.2
			c-1.3,1.6-2.4,2.7-3.2,3.3c-0.6,0.4-1.2,0.7-2,1c-0.7,0.3-1.5,0.4-2.3,0.5s-1.5,0-2.2-0.1s-1.3-0.4-1.8-0.8
			c-0.5-0.4-0.9-1.1-1.3-1.9c-0.3-0.7-0.6-1.6-0.8-2.8s-0.4-2.6-0.3-4.3c-1.4,2.6-2.9,4.5-4.5,5.9c-1.7,1.4-3.2,2.4-4.7,3
			c-1.7,0.7-3.4,1.1-5.2,1.2c-0.8,0-1.7-0.3-2.6-0.9c-0.9-0.6-1.7-1.6-2.3-2.9c-0.6-1.3-1-3-1.2-5.1c-0.2-2.1,0.1-4.5,0.7-7.4
			c0.8-3.9,2.1-7.4,3.8-10.6c1.7-3.2,3.6-5.9,5.7-8.2c2.1-2.3,4.1-4,6.1-5.1c2-1.1,3.7-1.7,5-1.5c1.5,0.3,2.8,0.8,3.8,1.5
			c0.8,0.6,1.3,1.6,1.6,2.8c0.3,1.2-0.2,2.9-1.4,4.9c0.8-0.2,1.5-0.3,2-0.4c0.5-0.1,1-0.1,1.2-0.1c0.3,0,0.6,0,0.7,0.1
			c0.1,0.1,0.1,0.4,0.1,0.8s-0.1,1.2-0.3,2.2c-0.2,1.1-0.4,2.6-0.8,4.4s-0.8,4.2-1.4,7.2c-0.1,0.6-0.2,1.1-0.3,1.6s-0.2,1-0.3,1.4
			s-0.2,1-0.3,1.7c-0.1,0.6-0.3,1.4-0.4,2.4c-0.1,0.6-0.1,1.2,0,1.9c0,0.7,0.1,1.3,0.3,1.9c0.2,0.6,0.4,1,0.8,1.4
			c0.4,0.4,0.9,0.5,1.6,0.5c0.6,0,1.3-0.4,2.2-1.2c0.9-0.8,1.9-1.8,2.9-3.1c1-1.2,2.1-2.6,3.2-4.1s2.2-2.9,3.1-4.4
			c1-1.4,1.8-2.6,2.6-3.7s1.3-1.9,1.7-2.4c0.5-0.6,0.9-0.9,1.4-1c0.5-0.1,0.8,0,1,0.4c0.2,0.4,0.3,1,0.1,1.7
			C451.7,237.6,451.2,238.5,450.6,239.6z M425.4,243.8c0.3-1.3,0.6-2.8,1-4.5c0.4-1.7,0.7-3.4,1-5c0.3-1.6,0.5-2.9,0.6-4
			c0.1-1.1,0.1-1.5-0.1-1.5c-0.3,0.1-0.6,0.2-0.9,0.3c-0.3,0.1-0.7,0.2-1.1,0.3c-0.5,0.1-0.9,0.2-1.4,0.3c0.5-1,0.7-1.9,0.8-2.5
			c0.1-0.7,0.1-1.2,0-1.6c-0.1-0.4-0.2-0.8-0.3-1.1c-0.6-0.6-1.7-0.1-3.3,1.4c-1.6,1.5-3.4,4.3-5.5,8.3c-0.9,1.7-1.5,3.4-2.1,5.3
			c-0.5,1.9-0.9,3.6-1.1,5.3c-0.2,1.7-0.2,3.1-0.1,4.4c0.1,1.2,0.3,2.1,0.7,2.4c0.6,0.7,1.3,1,2.1,1c0.8,0,1.6-0.3,2.4-0.8
			c0.8-0.5,1.7-1.1,2.5-1.9c0.8-0.8,1.6-1.6,2.2-2.4c0.7-0.8,1.2-1.6,1.6-2.3C425.1,244.6,425.3,244.1,425.4,243.8z"/>
		<path class="st1" d="M441.5,258.1c-0.4,0.7-0.8,1.2-1.3,1.4c-0.5,0.2-0.9,0.3-1.3,0.1c-0.4-0.2-0.6-0.5-0.7-1
			c-0.1-0.5,0-1.1,0.3-1.9c0.2-0.4,0.6-1.2,1.2-2.6s1.3-2.9,2.1-4.8c0.8-1.9,1.7-3.9,2.7-6.1c1-2.2,1.9-4.3,2.8-6.3
			c0.9-2,1.7-3.7,2.4-5.3c0.7-1.6,1.3-2.7,1.6-3.4c-0.6-0.6-1.1-1.1-1.3-1.4c-0.2-0.3-0.4-0.9-0.5-1.9c-0.1-0.8,0.1-1.9,0.5-3.3
			c0.5-1.3,1.1-2.6,1.8-3.9c0.7-1.2,1.6-2.3,2.5-3.2c0.9-0.9,1.8-1.3,2.7-1.3c1.6,0,2.7,0.6,3.4,1.7c0.7,1.1,1,2.3,1.2,3.5
			c0.1,0.8,0.1,1.9-0.2,3.2c-0.2,1.3-0.7,2.4-1.3,3.4c0.2,0.1,0.4,0.3,0.7,0.4c0.3,0.2,0.7,0.2,1.4,0.2c0.9,0,1.6-0.1,1.9-0.2
			c0.4-0.1,1-0.2,1.8-0.2c1,0,1.8,0.3,2.4,0.8c0.6,0.5,1.1,1.2,1.5,2c0.4,0.8,0.7,1.7,0.9,2.6c0.2,0.9,0.3,1.8,0.4,2.5
			c0.2,1.6-0.2,3.3-1.1,5c-0.9,1.7-2,3.6-3.3,5.6c-0.8,1.3-1.6,2.7-2.4,4.3c-0.8,1.6-1.1,3-1,4.3c0.1,0.8,0.3,1.5,0.6,2
			c0.3,0.5,1.1,0.8,2.4,0.8c1,0,2-0.4,3.2-1.2c1.2-0.8,2.4-1.8,3.6-3.1c1.2-1.2,2.4-2.6,3.6-4.1c1.2-1.5,2.3-3,3.3-4.4
			c1-1.4,1.9-2.7,2.6-3.9c0.7-1.1,1.2-2,1.6-2.5c0.3-0.5,0.7-0.9,1.1-1.1c0.5-0.2,0.9-0.2,1.2,0s0.6,0.6,0.6,1.1
			c0.1,0.6-0.1,1.3-0.6,2.3c-0.3,0.6-0.9,1.7-1.8,3.1c-0.8,1.4-1.8,3-3,4.7c-1.2,1.7-2.5,3.5-3.9,5.3c-1.4,1.8-2.9,3.5-4.5,5
			c-1.6,1.5-3.1,2.7-4.7,3.7c-1.6,1-3.1,1.4-4.5,1.4c-1.5,0-2.7-0.3-3.7-1c-1-0.6-1.8-1.4-2.4-2.3c-0.6-0.9-1-1.9-1.3-3.1
			c-0.3-1.1-0.4-2.2-0.3-3.1c0.1-0.8,0.2-1.6,0.6-2.4c0.3-0.9,0.7-1.8,1.1-2.7c0.4-0.9,0.9-1.8,1.4-2.8c0.5-0.9,0.9-1.8,1.3-2.7
			c1-1.8,1.8-3.4,2.4-4.7c0.6-1.3,0.9-2.4,0.9-3.3c0-0.6-0.1-1.1-0.3-1.5c-0.2-0.4-0.6-0.7-1.1-0.7c-0.3,0-0.6,0-0.7,0
			c-0.1,0-0.3,0-0.4,0c-0.1,0-0.3,0-0.6,0s-0.6,0-1.2,0c-0.7,0-1.4-0.1-1.9-0.4c-0.5-0.3-1-0.4-1.5-0.6c-0.2,0.4-0.7,1.4-1.5,2.9
			c-0.8,1.5-1.7,3.2-2.8,5.2c-1.1,2-2.2,4-3.3,6.2c-1.2,2.2-2.3,4.2-3.3,6.1c-1,1.9-1.9,3.5-2.6,4.8
			C442.2,257.1,441.7,257.9,441.5,258.1z"/>
		<path class="st1" d="M524.5,239.6c-0.8,1.3-1.8,2.9-3.1,4.7c-1.3,1.9-2.6,3.8-3.9,5.6c-1.3,1.9-2.7,3.6-3.9,5.2
			c-1.3,1.6-2.4,2.7-3.2,3.3c-0.6,0.4-1.2,0.7-2,1c-0.7,0.3-1.5,0.4-2.3,0.5c-0.8,0.1-1.5,0-2.2-0.1s-1.3-0.4-1.8-0.8
			c-0.5-0.4-0.9-1.1-1.3-1.9c-0.3-0.7-0.6-1.6-0.8-2.8c-0.3-1.1-0.4-2.6-0.3-4.3c-1.4,2.6-2.9,4.5-4.5,5.9c-1.7,1.4-3.2,2.4-4.7,3
			c-1.7,0.7-3.4,1.1-5.2,1.2c-0.8,0-1.7-0.3-2.6-0.9c-0.9-0.6-1.7-1.6-2.3-2.9c-0.6-1.3-1-3-1.2-5.1c-0.2-2.1,0.1-4.5,0.7-7.4
			c0.8-3.9,2.1-7.4,3.8-10.6c1.7-3.2,3.6-5.9,5.7-8.2c2.1-2.3,4.1-4,6.1-5.1c2-1.1,3.7-1.7,5-1.5c1.5,0.3,2.8,0.8,3.8,1.5
			c0.8,0.6,1.3,1.6,1.6,2.8c0.3,1.2-0.2,2.9-1.4,4.9c0.8-0.2,1.5-0.3,2-0.4c0.5-0.1,1-0.1,1.2-0.1c0.3,0,0.6,0,0.7,0.1
			c0.1,0.1,0.1,0.4,0.1,0.8s-0.1,1.2-0.3,2.2c-0.2,1.1-0.4,2.6-0.8,4.4s-0.8,4.2-1.4,7.2c-0.1,0.6-0.2,1.1-0.3,1.6
			c-0.1,0.5-0.2,1-0.3,1.4s-0.2,1-0.3,1.7c-0.1,0.6-0.3,1.4-0.4,2.4c-0.1,0.6-0.1,1.2,0,1.9c0,0.7,0.1,1.3,0.3,1.9
			c0.2,0.6,0.4,1,0.8,1.4c0.4,0.4,0.9,0.5,1.6,0.5c0.6,0,1.3-0.4,2.2-1.2c0.9-0.8,1.9-1.8,2.9-3.1c1-1.2,2.1-2.6,3.2-4.1
			s2.2-2.9,3.1-4.4c1-1.4,1.8-2.6,2.6-3.7c0.8-1.1,1.3-1.9,1.7-2.4c0.5-0.6,0.9-0.9,1.4-1c0.5-0.1,0.8,0,1,0.4
			c0.2,0.4,0.3,1,0.1,1.7C525.6,237.6,525.2,238.5,524.5,239.6z M499.4,243.8c0.3-1.3,0.6-2.8,1-4.5c0.4-1.7,0.7-3.4,1-5
			c0.3-1.6,0.5-2.9,0.6-4c0.1-1.1,0.1-1.5-0.1-1.5c-0.3,0.1-0.6,0.2-0.9,0.3c-0.3,0.1-0.7,0.2-1.1,0.3c-0.5,0.1-0.9,0.2-1.4,0.3
			c0.5-1,0.7-1.9,0.8-2.5c0.1-0.7,0.1-1.2,0-1.6c-0.1-0.4-0.2-0.8-0.3-1.1c-0.6-0.6-1.7-0.1-3.3,1.4c-1.6,1.5-3.4,4.3-5.5,8.3
			c-0.9,1.7-1.5,3.4-2.1,5.3c-0.5,1.9-0.9,3.6-1.1,5.3c-0.2,1.7-0.2,3.1-0.1,4.4c0.1,1.2,0.3,2.1,0.7,2.4c0.6,0.7,1.3,1,2.1,1
			c0.8,0,1.6-0.3,2.4-0.8c0.8-0.5,1.7-1.1,2.5-1.9c0.8-0.8,1.6-1.6,2.2-2.4c0.7-0.8,1.2-1.6,1.6-2.3
			C499.1,244.6,499.3,244.1,499.4,243.8z"/>
		<path class="st1" d="M543.9,241.6c-1.5,2.4-3,4.8-4.6,7.1c-1.6,2.3-3.1,4.4-4.5,6.2c-1.5,1.8-2.8,3.3-4,4.4
			c-1.2,1.1-2.2,1.7-3,1.7c-1.8,0-3.2-0.9-4.3-2.8c-1.1-1.9-2-4.2-2.6-7c-0.6-2.8-1-5.7-1.1-8.9c-0.1-3.2-0.1-6,0-8.5
			c0.2-2.5,0.5-4.5,0.8-6c0.3-1.5,0.6-2.7,1.1-3.5c0.4-0.8,0.9-1.4,1.5-1.8c0.6-0.4,1.4-0.7,2.3-1c0.4-0.1,0.9-0.2,1.4-0.3
			s1,0,1.4,0c0.4,0.1,0.8,0.3,1,0.6c0.2,0.3,0.3,0.8,0.1,1.4c-0.1,0.6-0.3,1.4-0.6,2.5c-0.3,1.1-0.5,2.4-0.8,3.8
			c-0.3,1.4-0.6,2.9-0.8,4.4s-0.4,3-0.6,4.4c-0.2,2.4-0.2,4.5,0,6.4c0.2,1.8,0.4,3.3,0.8,4.6c0.3,1.2,0.7,2.2,1.1,2.8
			c0.4,0.6,0.7,1,0.9,1c0.3,0,0.8-0.4,1.6-1.3c0.8-0.9,1.7-2,2.7-3.4c1-1.4,2.1-3,3.2-4.9s2.2-3.8,3.1-5.7c-0.3-1-0.5-2.2-0.4-3.6
			c0.2-2.2,0.6-4.1,1.3-5.9c0.7-1.8,1.5-3.2,2.4-4.4c0.9-1.2,1.8-2.2,2.7-2.8c0.9-0.7,1.8-1,2.5-1c1.5,0,2.4,0.4,2.8,1.3
			c0.4,0.9,0.5,1.7,0.4,2.6c-0.1,1.3-0.6,3.2-1.6,5.5c-0.9,2.3-2.2,4.9-3.6,7.6c0.3,0.1,0.6,0.3,0.9,0.4c0.3,0.1,0.7,0.2,1.2,0.2
			c1.9,0,3.7-0.3,5.3-0.8c1.6-0.5,2.9-1.1,4.1-1.8c1.2-0.7,2.2-1.5,3-2.2c0.8-0.8,1.5-1.5,2-2c0.3-0.4,0.7-0.6,1-0.6
			c0.3,0,0.6,0.1,0.9,0.3c0.2,0.2,0.3,0.5,0.3,0.9c0,0.4-0.2,0.8-0.5,1.2c-2.1,2.8-4.6,5.1-7.5,6.8c-2.9,1.7-6.4,2.6-10.3,2.6
			c-0.3,0-0.8,0-1.3-0.1C545.1,241.9,544.5,241.8,543.9,241.6z"/>
		<path class="st1" d="M595.3,238.7c-1.7,2.8-3.7,5.5-5.8,8.2s-4.5,5-6.9,7.1c-2.4,2.1-4.9,3.7-7.5,5c-2.5,1.3-5,1.9-7.4,1.9
			c-1.3,0-2.6-0.3-4.1-1c-1.5-0.7-2.8-1.7-4-3.1c-1.2-1.4-2.2-3.2-2.9-5.5c-0.7-2.2-0.9-4.9-0.6-8.1c0.2-2.6,1-5.4,2.2-8.3
			c1.2-2.9,2.7-5.6,4.5-8c1.8-2.4,3.8-4.4,6.1-6c2.3-1.6,4.5-2.4,6.8-2.4c2.2,0,3.7,0.6,4.7,1.8c1,1.2,1.4,2.7,1.3,4.5
			c-0.2,2-0.7,3.8-1.5,5.5c-0.8,1.7-1.8,3.2-3,4.5c-1.1,1.3-2.4,2.6-3.6,3.6c-1.3,1.1-2.5,2.1-3.6,3c-1.3,1-2.5,1.9-3.6,2.7
			c-1.1,0.9-2.1,1.6-3,2.3c0.1,1.6,0.3,2.9,0.8,4c0.5,1.1,1,2,1.7,2.6c0.7,0.7,1.5,1.1,2.4,1.4c0.9,0.3,1.8,0.4,2.7,0.4
			c1.9,0,4-0.7,6.1-2.1s4.2-3,6.2-5c2-1.9,3.9-4,5.7-6.1c1.7-2.1,3.2-3.9,4.3-5.5c0.4-0.5,0.8-0.8,1.2-0.9s0.8,0,1,0.2
			c0.3,0.2,0.4,0.6,0.4,1.1S595.7,238,595.3,238.7z M573.3,224c-0.7,0-1.5,0.4-2.4,1.1c-0.9,0.8-1.9,1.9-2.8,3.3
			c-0.9,1.4-1.8,3.2-2.6,5.3c-0.8,2.1-1.4,4.4-1.8,7.1c0.7-0.6,1.4-1.2,2.2-1.8c0.8-0.6,1.6-1.3,2.4-2c2.5-2.1,4.2-4,5.1-5.5
			s1.5-3,1.6-4.1c0.1-1.2,0-2.1-0.3-2.6C574.4,224.2,573.9,224,573.3,224z"/>
		<path class="st1" d="M587.8,257.1c2.5-11.8,4.5-21.3,6.1-28.4s2.7-12.6,3.5-16.4c0.9-4.5,1.5-7.6,1.9-9.3c0.2-1.2,0.3-2.4,0.4-3.5
			c0.1-1,0.2-2.1,0.2-3.2s-0.1-2.1-0.3-3c0.5-0.3,1-0.6,1.5-0.8c0.5-0.2,1.1-0.4,1.6-0.5c0.6-0.2,1.3-0.4,1.9-0.5
			c0.6-0.1,1.2-0.2,1.7-0.2c0.5,0,0.9,0,1.3,0.1s0.7,0.3,0.8,0.6c0.3,0.3,0.5,1,0.5,1.9c0,1-0.1,1.9-0.2,3c-0.2,1.2-0.5,2.5-0.8,3.9
			c-0.7,2.7-1.6,6.7-2.8,11.9c-1,4.4-2.4,10.4-4.2,18c-1.7,7.6-3.9,17.1-6.6,28.7c-0.3,0.3-0.6,0.5-1,0.7s-0.8,0.2-1.1,0.2
			c-0.4,0-0.8,0-1.3-0.1c-0.4-0.1-0.8-0.3-1.2-0.6c-0.3-0.3-0.7-0.6-1-1C588.2,258.3,588,257.8,587.8,257.1z"/>
		<path class="st1" d="M652.6,203.8c-0.9,3.8-1.8,7.5-2.9,10.9c-1.1,3.5-2.1,6.7-3.3,9.8s-2.2,5.8-3.3,8.3c-1.1,2.5-2.1,4.7-3,6.5
			c-0.6,4.6-0.6,8.3,0,11.1c0.6,2.8,1.7,4.2,3.3,4.2c1.4,0,2.7-0.7,4-2.1c1.3-1.4,2.5-3.1,3.5-5.2c1-2,1.9-4.2,2.6-6.6
			c0.7-2.3,1.2-4.4,1.3-6.3c-1.1-0.3-2-0.9-2.7-1.7c-0.7-0.8-1.1-1.9-1.1-3.2c0-0.9,0.2-1.7,0.7-2.5c0.5-0.8,1-1.5,1.6-2.1
			c0.6-0.6,1.3-1,2.1-1.3c0.7-0.3,1.4-0.5,2.1-0.5c1,0,1.8,0.7,2.5,2.1c0.7,1.4,1.1,3.1,1.4,5.2c2.3-0.1,4.7-0.4,7.2-1.1
			c2.5-0.7,4.9-1.6,7.1-2.7c0.6-0.3,1.1-0.4,1.5-0.3c0.4,0.1,0.7,0.4,0.8,0.8s0.1,0.8,0,1.3s-0.5,0.8-1,1.1
			c-1.3,0.8-2.7,1.6-4.1,2.2c-1.4,0.7-2.8,1.2-4.2,1.7s-2.7,0.8-3.9,1.1c-1.3,0.3-2.4,0.4-3.4,0.4c-0.2,2.6-0.9,5.3-2.1,8.3
			s-2.7,5.7-4.4,8.2c-1.7,2.5-3.6,4.6-5.7,6.3c-2.1,1.7-4.1,2.5-6.1,2.5c-0.6,0-1.5-0.1-2.5-0.3c-1-0.2-2-0.9-3-2s-1.8-3-2.5-5.5
			s-1-6.1-0.9-10.8c0.1-3.1,0.4-6.4,0.9-9.9s1.3-7,2.1-10.5c0.8-3.5,1.7-6.9,2.7-10.2c1-3.3,2-6.2,2.9-8.9c0.9-2.6,1.8-4.9,2.5-6.6
			c0.8-1.8,1.4-2.9,1.8-3.4c0.5-0.7,1.1-1.2,1.8-1.6c0.7-0.4,1.4-0.6,2-0.8c0.7-0.2,1.3-0.2,1.8-0.1c0.6,0.1,1,0.2,1.2,0.3
			c0.3,0.3,0.4,1.7,0.3,4.2C654.1,196.5,653.6,199.8,652.6,203.8z"/>
		<path class="st1" d="M668.2,257.1c2.5-11.8,4.5-21.3,6.1-28.4s2.7-12.6,3.5-16.4c0.9-4.5,1.5-7.6,1.9-9.3c0.2-1.2,0.3-2.4,0.4-3.5
			c0.1-1,0.2-2.1,0.2-3.2s-0.1-2.1-0.3-3c0.5-0.3,1-0.6,1.5-0.8c0.5-0.2,1.1-0.4,1.6-0.5c0.6-0.2,1.3-0.4,1.9-0.5
			c0.6-0.1,1.2-0.2,1.7-0.2c0.5,0,0.9,0,1.3,0.1c0.4,0.1,0.7,0.3,0.8,0.6c0.3,0.3,0.5,1,0.5,1.9s-0.1,1.9-0.2,3
			c-0.2,1.2-0.5,2.5-0.8,3.9c-0.7,2.7-1.6,6.7-2.8,11.9c-1,4.4-2.4,10.4-4.2,18c-1.7,7.6-3.9,17.1-6.6,28.7c-0.3,0.3-0.6,0.5-1,0.7
			s-0.8,0.2-1.1,0.2c-0.4,0-0.8,0-1.3-0.1c-0.4-0.1-0.8-0.3-1.2-0.6c-0.3-0.3-0.7-0.6-1-1C668.6,258.3,668.3,257.8,668.2,257.1z"/>
		<path class="st1" d="M714.1,243.4c-0.6,2.4-1.3,4.7-2.3,6.8s-2.1,3.9-3.5,5.5c-1.3,1.5-2.9,2.7-4.5,3.6c-1.7,0.9-3.5,1.3-5.5,1.3
			c-2.3,0-4.2-0.6-5.5-1.7c-1.3-1.1-2.3-2.5-3-4.2c-0.7-1.7-1.1-3.5-1.2-5.5s-0.2-3.8-0.2-5.5c0-1.2,0.1-2.6,0.4-4s0.6-3,1.1-4.5
			c0.5-1.5,1-3.1,1.8-4.6s1.6-2.9,2.5-4.2c0.3-1.1,0.9-2,1.6-2.9c0.7-0.8,1.5-1.5,2.5-2.1c0.9-0.5,2-1,3-1.2
			c1.1-0.3,2.1-0.4,3.2-0.4c0.2,0,0.3,0,0.5,0.1c0.1,0.1,0.3,0.1,0.5,0.2c0.7,0.1,1.7,0.4,2.8,1c1.1,0.6,2.2,1.4,3.3,2.6
			s2,2.6,2.7,4.4c0.7,1.8,1.1,3.9,1.1,6.4c0,0.5,0,1.1-0.1,1.9c-0.1,0.7-0.1,1.4-0.2,1.9c1.3-0.6,2.7-1.3,4.1-2.1
			c1.4-0.8,2.8-1.7,4.2-2.6c1.3-0.9,2.6-1.9,3.7-2.8s2.1-1.8,2.7-2.6c0.6-0.6,1.1-0.9,1.5-1c0.4-0.1,0.7,0.1,0.9,0.4
			c0.2,0.3,0.2,0.8,0.1,1.3c-0.1,0.6-0.4,1.2-0.9,1.9c-0.3,0.4-1,1.1-2.2,2.3c-1.2,1.1-2.6,2.4-4.2,3.7c-1.6,1.3-3.3,2.6-5.2,3.9
			C717.6,241.8,715.8,242.7,714.1,243.4z M694.1,245.7c0,1.1,0.1,2.3,0.2,3.4c0.1,1.1,0.3,2.1,0.7,3c0.3,0.9,0.8,1.6,1.4,2.1
			s1.3,0.8,2.2,0.8c1,0,2-0.3,2.8-0.8s1.6-1.2,2.3-2.1c0.7-0.9,1.3-1.8,1.8-3c0.5-1.1,1-2.3,1.4-3.5c-0.4,0.1-0.8,0.1-1.2,0.1
			c-0.4,0-0.8,0-1.2,0c-2.2,0-4-0.7-5.6-2.2c-1.6-1.4-2.8-3.3-3.6-5.5c-0.3,1.3-0.6,2.6-0.9,3.9
			C694.2,243.3,694.1,244.5,694.1,245.7z M699.6,228.8c-0.2,0.6-0.3,1.2-0.3,1.8c0,1,0.1,2.1,0.2,3.2s0.4,2.1,0.9,3
			c0.5,0.9,1.2,1.6,2.2,2.2c1,0.6,2.4,0.9,4.2,0.9c0.3,0,0.6,0,0.9,0s0.6-0.1,0.9-0.1c0.2-0.8,0.3-1.6,0.5-2.2
			c0.1-0.7,0.2-1.3,0.2-1.8c0.1-1.2,0.1-2.5,0-3.7c-0.1-1.3-0.3-2.4-0.6-3.5c-0.3-1.1-0.7-1.9-1.2-2.6c-0.5-0.7-1.1-1-1.8-1
			c-1.1,0-2.1,0.3-3.1,1C701.4,226.7,700.4,227.6,699.6,228.8z"/>
		<path class="st1" d="M745.9,272.3c-0.3,1.5-0.6,3.4-1.1,5.7c-0.4,2.3-0.9,4.7-1.5,7.3c-0.5,2.6-1.2,5.1-1.9,7.6
			c-0.7,2.5-1.5,4.8-2.4,6.8c-0.9,2-1.8,3.6-2.8,4.9c-1,1.3-2.2,1.9-3.4,1.9c-1.9,0-3.5-0.6-4.8-1.9s-2.5-2.8-3.4-4.7
			c-0.9-1.9-1.6-3.9-2-6.1c-0.4-2.2-0.6-4.2-0.6-6c0-2.6,0.2-4.7,0.6-6.4s1.1-3.3,2.1-4.8c1-1.5,2.4-3.2,4.1-4.9
			c1.7-1.7,3.9-3.9,6.6-6.4c1.3-1.3,2.6-2.5,3.8-3.6s2.3-2.2,3.4-3.2c0.3-1.3,0.6-2.5,0.8-3.6s0.5-2.1,0.6-3
			c-1.5,2.2-3.3,4.1-5.4,5.6c-2.1,1.5-4.5,2.3-7.2,2.3c-2.5,0-4.4-1.2-6-3.7c-1.5-2.5-2.3-6.1-2.3-10.9c0-2.4,0.4-5.1,1.2-8.1
			s1.9-5.9,3.4-8.6c1.5-2.7,3.3-4.9,5.5-6.8c2.2-1.8,4.6-2.8,7.3-2.8c1.3,0,2.3,0.4,3.3,1.1c0.9,0.7,1.7,1.6,2.3,2.6
			c0.6,1.1,1.1,2.2,1.5,3.3c0.3,1.2,0.6,2.3,0.8,3.3c0.1-0.4,0.2-0.8,0.3-1.2c0.1-0.4,0.1-0.8,0.3-1.1c0.6-2.2,1.2-3.6,1.9-4.4
			c0.7-0.8,1.8-1.2,3.2-1.2c0.8,0,1.5,0.2,2,0.5c0.5,0.3,0.8,0.6,0.8,0.9c-0.3,0.7-0.5,1.2-0.7,1.6c-0.2,0.4-0.3,0.8-0.5,1.2
			c-0.2,0.4-0.3,0.9-0.5,1.6c-0.2,0.6-0.4,1.6-0.7,2.8c-0.1,0.4-0.3,1.5-0.6,3.1c-0.3,1.6-0.7,3.6-1.2,5.8c-0.5,2.2-1,4.7-1.5,7.4
			c-0.5,2.7-1.1,5.3-1.6,7.8c1.6-1,3.3-2.3,5-3.7c1.7-1.5,3.3-3,4.9-4.5c1.5-1.5,2.9-3,4.1-4.4c1.2-1.4,2.1-2.5,2.7-3.4
			c0.5-0.8,1-1.3,1.5-1.6c0.6-0.3,1.1-0.4,1.5-0.3c0.4,0.1,0.7,0.4,0.8,0.9s-0.1,1.1-0.6,2c-1.3,2.4-2.9,4.6-4.8,6.8
			c-1.9,2.2-3.8,4.2-5.8,6.1c-2,1.9-3.9,3.5-5.8,5c-1.9,1.4-3.4,2.6-4.8,3.5c-0.6,2.9-1.1,5.2-1.5,7
			C746.5,269.2,746.2,270.8,745.9,272.3z M731.2,297.8c1.1,0,2.1-0.9,2.8-2.8c0.7-1.9,1.5-4.4,2.3-7.7c0.2-0.8,0.4-1.9,0.7-3.3
			c0.3-1.4,0.7-3.1,1.1-4.9s0.9-3.8,1.3-6c0.5-2.1,0.9-4.3,1.5-6.5c-0.5,0.4-0.9,0.9-1.4,1.4c-0.5,0.5-1,1-1.5,1.7
			c-1.3,1.3-2.5,2.6-3.6,3.9c-1.2,1.2-2.2,2.6-3.1,3.9c-0.9,1.4-1.6,2.9-2.2,4.4c-0.5,1.6-0.8,3.4-0.8,5.5c0,2.1,0.1,3.8,0.2,5.2
			c0.1,1.3,0.3,2.4,0.6,3.2c0.3,0.8,0.6,1.3,0.9,1.6C730.3,297.7,730.7,297.8,731.2,297.8z M735.1,253.4c1.2,0,2.3-0.4,3.4-1.1
			c1.1-0.7,2-1.5,2.9-2.4s1.6-1.9,2.1-2.8c0.6-1,1-1.7,1.3-2.3c0.2-0.6,0.5-1.3,0.8-2.3c0.3-1,0.6-1.9,0.7-2.8s0.2-1.7,0.2-2.4
			c0-0.7-0.2-1.1-0.6-1.1c-0.3-0.1-0.6-0.3-0.8-0.8c-0.2-0.4-0.4-1-0.5-1.5c-0.1-0.6-0.2-1.1-0.2-1.7c0-0.6-0.1-1.1-0.1-1.5
			c-0.3-2.2-0.8-3.9-1.5-4.9s-1.5-1.5-2.3-1.5c-1.4,0-2.8,0.6-4.1,1.9s-2.4,2.9-3.4,4.9s-1.8,4.2-2.4,6.6c-0.6,2.4-0.9,4.7-0.9,6.8
			c0,2.7,0.3,4.8,1,6.5C731.5,252.6,732.9,253.4,735.1,253.4z"/>
	</g>
</g>
<g id="_x39_9d_logo" class="st2">
	<g class="st3">
		<defs>
			<path id="SVGID_1_" d="M281.3,418.6c15.7-27.3,50.3-36.6,77.4-20.9c27.1,15.7,36.4,50.6,20.7,77.9
				c-15.7,27.3-50.3,36.6-77.4,20.9C275,480.8,265.7,445.9,281.3,418.6z M497.7,418.6c15.7-27.3,50.3-36.6,77.4-20.9
				c27.1,15.7,36.4,50.6,20.7,77.9c-15.7,27.3-50.3,36.6-77.4,20.9C491.4,480.8,482.1,445.9,497.7,418.6z M800.7,590.7
				c-11.2,11.3-25.5,16.9-42.9,16.9c-8.4,0-16.2-1.5-23.6-4.5c-7.3-3-13.5-7.1-18.7-12.4c-5.1-5.3-9.2-11.6-12.1-19
				c-3-7.4-4.4-15.4-4.4-24.2c0-8.5,1.5-16.4,4.4-23.7c3-7.4,7.1-13.6,12.4-18.8c5.3-5.2,11.6-9.2,18.9-12.2c7.3-3,15.3-4.5,24-4.5
				c8.4,0,16.2,1.5,23.3,4.5c7.1,3,13.4,7.1,18.6,12.4c5.3,5.3,9.4,11.5,12.4,18.5c3,7,4.4,14.8,4.4,23.2
				C817.5,565,811.9,579.5,800.7,590.7z M438.6,508.3c10.5,18.9,26.1,35.3,46.2,47c16.8,9.8,35,15,53.1,16.3l-54,94.1h80.8
				l64.4-112.2c0.5,16.2,3.4,31.2,8.5,44.9c5.8,15.3,13.8,28.5,24.3,39.6c10.4,11.1,22.8,19.8,37.1,26.1c14.3,6.3,30,9.4,47.1,9.4
				c16.2,0,29.8-2.6,40.8-7.7c11-5.2,21.2-13.5,30.6-25.1v24.9h66.3v-336h-70v121.1c-9.6-9.4-19.9-16.4-30.8-20.9
				c-10.9-4.5-23.7-6.8-38.3-6.8c-16.5,0-31.8,3.1-45.9,9.4c-10.3,4.6-19.6,10.4-27.9,17.5c0.9-44-21.5-87.1-62-110.7
				c-59.4-34.5-135.3-14-169.5,45.7c-0.2,0.4-0.5,0.9-0.7,1.3c-10.5-18.9-26.1-35.3-46.2-47c-59.4-34.5-135.3-14-169.5,45.7
				c-34.3,59.7-13.9,136.1,45.4,170.5c16.8,9.8,35,15,53.1,16.3l-54,94.1h80.8l89.6-156C438.1,509.1,438.4,508.7,438.6,508.3
				L438.6,508.3z"/>
		</defs>
		<clipPath id="SVGID_2_">
			<use xlink:href="#SVGID_1_"  style="overflow:visible;"/>
		</clipPath>
		<g class="st4">
			<defs>
				<rect id="SVGID_3_" x="-340.5" y="-388.3" width="1770.8" height="1770.8"/>
			</defs>
			<clipPath id="SVGID_4_">
				<use xlink:href="#SVGID_3_"  style="overflow:visible;"/>
			</clipPath>
			<rect x="195.2" y="311.2" class="st5" width="699.6" height="373.2"/>
		</g>
	</g>
</g>
<g id="Guides" class="st2">
</g>
<g id="TEMPLATE__x28_delete_x29_" class="st2">
	<path class="st6" d="M45-2.5v1000h1000V-2.5H45z M845,797.5H245v-600h600V797.5z"/>
	<g class="st3">
		<defs>
			<path id="SVGID_5_" d="M292.5,292.4c2-3.5,6.4-4.6,9.8-2.6c3.4,2,4.6,6.4,2.6,9.9c-2,3.5-6.4,4.6-9.8,2.6
				C291.7,300.3,290.5,295.9,292.5,292.4z M321.1,292.4c2-3.5,6.4-4.6,9.8-2.6c3.4,2,4.6,6.4,2.6,9.9c-2,3.5-6.4,4.6-9.8,2.6
				C320.3,300.3,319.1,295.9,321.1,292.4z M364.4,314.2c-1.4,1.4-3.2,2.1-5.4,2.1c-1.1,0-2.1-0.2-3-0.6c-0.9-0.4-1.7-0.9-2.4-1.6
				c-0.7-0.7-1.2-1.5-1.5-2.4c-0.4-0.9-0.6-2-0.6-3.1c0-1.1,0.2-2.1,0.6-3c0.4-0.9,0.9-1.7,1.6-2.4c0.7-0.7,1.5-1.2,2.4-1.5
				c0.9-0.4,1.9-0.6,3-0.6c1.1,0,2.1,0.2,3,0.6c0.9,0.4,1.7,0.9,2.4,1.6c0.7,0.7,1.2,1.5,1.6,2.3c0.4,0.9,0.6,1.9,0.6,2.9
				C366.5,311,365.8,312.8,364.4,314.2z M366,281.1v15.3c-1.2-1.2-2.5-2.1-3.9-2.7c-1.4-0.6-3-0.9-4.9-0.9c-2.1,0-4,0.4-5.8,1.2
				c-1.8,0.8-3.3,1.9-4.6,3.3c-1.3,1.4-2.3,3.1-3.1,5c-0.7,1.9-1.1,4-1.1,6.3c0,2.3,0.4,4.5,1.1,6.4c0.7,1.9,1.8,3.6,3.1,5
				c1.3,1.4,2.9,2.5,4.7,3.3c1.8,0.8,3.8,1.2,6,1.2c2.1,0,3.8-0.3,5.2-1c1.4-0.7,2.7-1.7,3.9-3.2v3.2h8.4v-42.6H366z M313,289.4
				c0.2-0.4,0.4-0.9,0.7-1.3c4.3-7.6,14-10.2,21.5-5.8c7.5,4.4,10.1,14.1,5.8,21.6l-11.4,19.8h-10.2l6.8-11.9
				c-2.3-0.2-4.6-0.8-6.7-2.1c-2.9-1.7-5.1-4.2-6.4-7.1c-0.2,0.4-0.4,0.9-0.7,1.3L301,323.7h-10.2l6.8-11.9
				c-2.3-0.2-4.6-0.8-6.7-2.1c-7.5-4.4-10.1-14.1-5.8-21.6c4.3-7.6,14-10.2,21.5-5.8C309.5,284,311.7,286.5,313,289.4z M385.7,305.7
				c0.4-1.7,1.1-2.9,2.3-3.8c1.2-0.9,2.6-1.3,4.3-1.3c1.7,0,3.2,0.5,4.4,1.4c1.2,0.9,2,2.2,2.3,3.7H385.7z M406.6,302.8
				c-0.8-2-1.9-3.7-3.3-5.1c-1.4-1.4-3-2.6-5-3.4c-1.9-0.8-4-1.2-6.2-1.2c-2.1,0-4.1,0.4-6,1.2c-1.9,0.8-3.5,2-4.9,3.4
				c-1.4,1.4-2.5,3.1-3.3,5c-0.8,1.9-1.2,4-1.2,6.2c0,2.2,0.4,4.3,1.2,6.2c0.8,1.9,1.9,3.6,3.3,5c1.4,1.4,3,2.5,4.9,3.4
				c1.9,0.8,3.9,1.2,6.1,1.2c3.1,0,6-0.9,8.5-2.7c2.4-1.7,4.3-4.1,5.7-7.1h-9.2c-0.9,0.9-1.8,1.5-2.6,1.8c-0.8,0.3-1.7,0.5-2.8,0.5
				c-1.8,0-3.2-0.5-4.4-1.5c-1.2-1-1.9-2.3-2.1-4h22.1C408,308.7,407.8,305.7,406.6,302.8z M432.2,302.4c-0.4-5.8-5-9.3-11.3-9.3
				c-6,0-11.5,3.8-11.5,9.6c0,3.5,2,6.4,9.4,8.7c4.4,1.4,5.4,2.2,5.4,3.9c0,1.4-1.5,2.3-3.1,2.3c-1.8,0-3.1-0.9-3.4-2.7H409
				c0.6,6,5.4,9.8,12,9.8c6.7,0,12-3.9,12-10.1c0-4.3-2.3-7.1-9.3-9c-4.1-1.1-5.5-1.9-5.5-3.5c0-1.1,1.1-2,2.6-2
				c1.4,0,2.7,0.5,2.7,2.2H432.2z M439.9,290.9c2.9,0,5.3-2.4,5.3-5.3s-2.4-5.3-5.3-5.3c-2.9,0-5.3,2.4-5.3,5.3
				S437,290.9,439.9,290.9z M444.3,323.7h-8.8V294h8.8V323.7z M461.2,299.7c2.7,0,4.9,2.2,4.9,4.9s-2.2,4.9-4.9,4.9
				c-2.7,0-4.9-2.2-4.9-4.9C456.3,301.9,458.5,299.7,461.2,299.7z M467.4,329.8c-1,1.4-2.9,1.9-4.5,1.9c-1.9,0.1-4.5-0.3-5.7-1.9
				c-1.2-1.5-1-3.6,0.7-4.6c0.5-0.3,1-0.5,1.5-0.6h4.4c1.9,0,4.4,0.5,4.3,2.9C468.1,328.4,467.8,329.2,467.4,329.8z M458.8,317.9
				c-3.6-0.6-3.5-2-2.6-2.7c8.2,3.1,18.1-0.8,18.2-10.3c0-3.5-1.3-5.7-2.2-6.7c0.7-1.4,1.6-2.2,3.4-2.6l-3.7-6.5
				c-3.4,0.3-5.6,2.4-6.6,4.5c-2-0.8-6.1-0.9-9.3,0.3c-1.6,0.6-3,1.4-4.2,2.5c-1.2,1-2.1,2.3-2.8,3.8c-0.7,1.5-1,3.1-1,4.8
				c0,2.3,0.7,4.9,2,6.8c-3.6,3.5-3.4,8.7,0.3,12c-0.4,0.3-0.8,0.6-1.1,1c-3.3,3.6-1.8,8.7,2.1,11.3c4.8,3.5,13.4,3.7,18.7,1.3
				c9.3-3.8,9.6-17.6-1.2-19.4C465.8,317.5,462.4,318.4,458.8,317.9z M477.8,323.7h8.9v-16.6c0-3.9,1.7-5.8,5-5.8
				c1.6,0,2.8,0.5,3.5,1.5c0.7,1,1.1,2.6,1.1,4.7v16.2h8.9v-18.6c0-1.2-0.1-2.2-0.1-3.1c-0.1-0.9-0.3-1.7-0.5-2.4
				c-0.2-0.7-0.5-1.3-0.9-1.9c-0.4-0.6-0.9-1.1-1.4-1.7c-0.9-0.9-2.1-1.7-3.5-2.2c-1.4-0.5-2.9-0.8-4.4-0.8c-1.9,0-3.5,0.3-4.7,1
				c-1.2,0.7-2.4,1.7-3.4,3.2V294h-8.4V323.7z M530.1,302.4c-0.4-5.8-5-9.3-11.3-9.3c-6,0-11.5,3.8-11.5,9.6c0,3.5,2,6.4,9.4,8.7
				c4.4,1.4,5.4,2.2,5.4,3.9c0,1.4-1.5,2.3-3.1,2.3c-1.8,0-3.1-0.9-3.4-2.7H507c0.6,6,5.4,9.8,12,9.8c6.7,0,12-3.9,12-10.1
				c0-4.3-2.3-7.1-9.3-9c-4.1-1.1-5.5-1.9-5.5-3.5c0-1.1,1.1-2,2.6-2c1.4,0,2.7,0.5,2.7,2.2H530.1z"/>
		</defs>
		<clipPath id="SVGID_6_">
			<use xlink:href="#SVGID_5_"  style="overflow:visible;"/>
		</clipPath>
		<g class="st7">
			<defs>
				<rect id="SVGID_7_" x="241.7" y="140.1" width="330.7" height="330.7"/>
			</defs>
			<clipPath id="SVGID_8_">
				<use xlink:href="#SVGID_7_"  style="overflow:visible;"/>
			</clipPath>
			<rect x="280.9" y="278.1" class="st8" width="252.2" height="62.8"/>
		</g>
	</g>
	<g class="st3">
		<path class="st9" d="M288,383.3h7v3.1h-10.3v-16.8h3.3V383.3z"/>
		<path class="st9" d="M309.3,380.3c0,3.8-2.7,6.4-6.4,6.4c-3.6,0-6.4-2.6-6.4-6.4c0-3.8,2.7-6.3,6.4-6.3
			C306.6,374,309.3,376.5,309.3,380.3z M299.8,380.3c0,2,1.3,3.5,3.2,3.5c1.9,0,3.1-1.5,3.1-3.5c0-2-1.2-3.5-3.1-3.5
			C301.1,376.8,299.8,378.3,299.8,380.3z"/>
		<path class="st9" d="M322.9,376.9h-1.8c0.1,0.4,0.2,0.9,0.2,1.4c0,2.4-2,4.2-4.8,4.2c-0.7,0-1.4-0.1-2-0.3
			c-0.2,0.2-0.3,0.5-0.3,0.9c0,0.6,0.5,1,1.2,1h2.9c2.5,0,4,1.2,4,3.5c0,2.7-2.1,4.2-5.4,4.2c-3.6,0-5.5-1.3-5.5-3.7
			c0-1.1,0.6-1.8,1.2-2.1c-0.7-0.5-1.4-1.4-1.4-2.6c0-1.2,0.5-2,1.2-2.6c-0.5-0.7-0.8-1.5-0.8-2.5c0-2.5,2.1-4.3,4.9-4.3
			c0.6,0,1.2,0.1,1.8,0.3h4.6V376.9z M315.7,386.4c-0.7,0.1-1.2,0.6-1.2,1.4c0,1.1,1,1.7,2.5,1.7c1.4,0,2.3-0.6,2.3-1.7
			c0-0.9-0.7-1.3-1.7-1.3H315.7z M314.7,378.3c0,1.1,0.7,1.9,1.8,1.9s1.8-0.8,1.8-1.9c0-1.2-0.7-2-1.8-2
			C315.4,376.3,314.7,377.1,314.7,378.3z"/>
		<path class="st9" d="M336.8,380.3c0,3.8-2.7,6.4-6.4,6.4c-3.6,0-6.4-2.6-6.4-6.4c0-3.8,2.7-6.3,6.4-6.3
			C334,374,336.8,376.5,336.8,380.3z M327.2,380.3c0,2,1.3,3.5,3.2,3.5c1.9,0,3.1-1.5,3.1-3.5c0-2-1.2-3.5-3.1-3.5
			C328.5,376.8,327.2,378.3,327.2,380.3z"/>
		<path class="st9" d="M348.3,374.2h2.8v2.8h-2.8l0,4.9c0,1.2,0.4,1.8,1.6,1.8c0.6,0,0.9-0.1,1.3-0.2v2.7c-0.4,0.1-1,0.3-2,0.3
			c-2.7,0-4-1.1-4-3.8l0-5.7h-2v-2.8h2l0-3h3.1L348.3,374.2z"/>
		<path class="st9" d="M364.6,380.3v1h-8.5c0.1,1.6,1.2,2.7,2.9,2.7c1.2,0,2.1-0.5,2.4-1.4h3c-0.7,2.6-2.6,4.1-5.6,4.1
			c-3.6,0-6-2.5-6-6.3c0-3.7,2.4-6.4,6-6.4C362.2,374,364.6,376,364.6,380.3z M356.1,379.1h5.3c0-1.5-1-2.5-2.6-2.5
			C357.3,376.6,356.3,377.6,356.1,379.1z"/>
		<path class="st9" d="M384.4,378.5v7.9h-3.1v-7.2c0-1.4-0.6-2.2-1.7-2.2c-1.2,0-2.1,0.9-2.1,2.8v6.6h-3.1v-7.2
			c0-1.4-0.6-2.2-1.7-2.2c-1.2,0-2.1,1-2.1,3v6.4h-3.1v-12.2h2.7l0.2,1.6c0.6-1,1.7-1.8,3.2-1.8c1.7,0,2.9,0.8,3.5,2.1
			c0.6-1.2,1.8-2.1,3.5-2.1C383.1,374,384.4,375.7,384.4,378.5z"/>
		<path class="st9" d="M400.3,380.3c0,3.6-2.4,6.4-5.7,6.4c-1.8,0-3-0.7-3.6-1.6v6.5h-3.1v-17.3h2.7l0.2,1.6c0.7-1,1.8-1.9,3.9-1.9
			C397.9,374,400.3,376.7,400.3,380.3z M390.9,380.3v0.1c0,2.1,1.6,3.3,3.1,3.3c1.7,0,3.1-1.3,3.1-3.4c0-2.1-1.3-3.4-3.1-3.4
			C392.4,376.9,390.9,378.1,390.9,380.3z"/>
		<path class="st9" d="M406.1,386.4H403v-17.5h3.1V386.4z"/>
		<path class="st9" d="M419,378.4v8h-2.7l-0.2-1.5c-0.6,1-1.8,1.8-3.5,1.8c-2.2,0-3.7-1.3-3.7-3.5c0-2.4,1.6-3.3,3.8-3.6l3.1-0.6
			v-0.5c0-1.2-0.6-1.8-1.7-1.8c-1,0-1.8,0.6-1.8,1.6h-3c0.1-2.5,2-4.3,4.8-4.3S419,375.4,419,378.4z M413.5,381.5
			c-0.8,0.2-1.4,0.6-1.4,1.4c0,0.7,0.5,1.2,1.4,1.2c0.8,0,1.5-0.4,1.9-1.1c0.3-0.4,0.4-1,0.4-1.6V381L413.5,381.5z"/>
		<path class="st9" d="M426.2,374.2h2.8v2.8h-2.8l0,4.9c0,1.2,0.4,1.8,1.6,1.8c0.6,0,0.9-0.1,1.3-0.2v2.7c-0.4,0.1-1,0.3-2,0.3
			c-2.7,0-4-1.1-4-3.8l0-5.7h-2v-2.8h2l0-3h3.1L426.2,374.2z"/>
		<path class="st9" d="M442.5,380.3v1H434c0.1,1.6,1.2,2.7,2.9,2.7c1.2,0,2.1-0.5,2.4-1.4h3c-0.7,2.6-2.6,4.1-5.6,4.1
			c-3.6,0-6-2.5-6-6.3c0-3.7,2.4-6.4,6-6.4C440.1,374,442.5,376,442.5,380.3z M434,379.1h5.3c0-1.5-1-2.5-2.6-2.5
			C435.2,376.6,434.2,377.6,434,379.1z"/>
		<path class="st10" d="M455.6,370.1c-2,2.7-3,5-3,8.6c0,3.6,1,6,3,8.6l-2.2,1.5c-2.2-2.7-3.7-5.7-3.7-10.1s1.5-7.4,3.7-10.1
			L455.6,370.1z"/>
		<path class="st10" d="M463.5,386.4h-3.3v-11.6h-3.5V372c2.6,0,4-0.6,4.4-2.4h2.4V386.4z"/>
		<path class="st10" d="M478.3,378c0,5.4-2.1,8.7-6,8.7s-6-3.4-6-8.7c0-5.4,2.1-8.7,6-8.7S478.3,372.6,478.3,378z M469.7,378
			c0,3.6,0.9,5.7,2.6,5.7c1.8,0,2.6-2.1,2.6-5.7c0-3.5-0.9-5.6-2.6-5.6C470.6,372.4,469.7,374.4,469.7,378z"/>
		<path class="st10" d="M492.3,378c0,5.4-2.1,8.7-6,8.7s-6-3.4-6-8.7c0-5.4,2.1-8.7,6-8.7S492.3,372.6,492.3,378z M483.7,378
			c0,3.6,0.9,5.7,2.6,5.7c1.8,0,2.6-2.1,2.6-5.7c0-3.5-0.9-5.6-2.6-5.6C484.5,372.4,483.7,374.4,483.7,378z"/>
		<path class="st10" d="M506.2,378c0,5.4-2.1,8.7-6,8.7s-6-3.4-6-8.7c0-5.4,2.1-8.7,6-8.7S506.2,372.6,506.2,378z M497.6,378
			c0,3.6,0.9,5.7,2.6,5.7c1.8,0,2.6-2.1,2.6-5.7c0-3.5-0.9-5.6-2.6-5.6C498.5,372.4,497.6,374.4,497.6,378z"/>
		<path class="st10" d="M523,377.9l5.7,8.5h-3.9l-4-6.1l-4,6.1h-3.9l5.6-8.5l-5.5-8.3h3.9l3.9,5.8l3.9-5.8h3.9L523,377.9z"/>
		<path class="st10" d="M542,386.4h-3.3v-11.6h-3.5V372c2.6,0,4-0.6,4.4-2.4h2.4V386.4z"/>
		<path class="st10" d="M556.7,378c0,5.4-2.1,8.7-6,8.7c-3.8,0-6-3.4-6-8.7c0-5.4,2.1-8.7,6-8.7C554.6,369.3,556.7,372.6,556.7,378z
			 M548.1,378c0,3.6,0.9,5.7,2.6,5.7c1.8,0,2.6-2.1,2.6-5.7c0-3.5-0.9-5.6-2.6-5.6C549,372.4,548.1,374.4,548.1,378z"/>
		<path class="st10" d="M570.7,378c0,5.4-2.1,8.7-6,8.7c-3.8,0-6-3.4-6-8.7c0-5.4,2.1-8.7,6-8.7C568.5,369.3,570.7,372.6,570.7,378z
			 M562.1,378c0,3.6,0.9,5.7,2.6,5.7c1.8,0,2.6-2.1,2.6-5.7c0-3.5-0.9-5.6-2.6-5.6C562.9,372.4,562.1,374.4,562.1,378z"/>
		<path class="st10" d="M584.6,378c0,5.4-2.1,8.7-6,8.7c-3.8,0-6-3.4-6-8.7c0-5.4,2.1-8.7,6-8.7C582.5,369.3,584.6,372.6,584.6,378z
			 M576,378c0,3.6,0.9,5.7,2.6,5.7c1.8,0,2.6-2.1,2.6-5.7c0-3.5-0.9-5.6-2.6-5.6C576.9,372.4,576,374.4,576,378z"/>
		<path class="st10" d="M599.9,380.3c0,3.6-2.4,6.4-5.7,6.4c-1.8,0-3-0.7-3.6-1.6v6.5h-3.1v-17.3h2.7l0.2,1.6c0.7-1,1.8-1.9,3.9-1.9
			C597.5,374,599.9,376.7,599.9,380.3z M590.5,380.3v0.1c0,2.1,1.6,3.3,3.1,3.3c1.7,0,3.1-1.3,3.1-3.4c0-2.1-1.3-3.4-3.1-3.4
			C592.1,376.9,590.5,378.1,590.5,380.3z"/>
		<path class="st10" d="M609,380.2l3.8,6.2h-3.6l-2.4-3.8l-2.4,3.8h-3.6l3.8-6.2l-3.7-6h3.6l2.2,3.6l2.2-3.6h3.6L609,380.2z"/>
		<path class="st10" d="M619.6,378.7c0,4.4-1.6,7.4-3.8,10.1l-2.2-1.5c2-2.7,3-5,3-8.6c0-3.6-1-6-3-8.6l2.2-1.5
			C618.1,371.3,619.6,374.3,619.6,378.7z"/>
	</g>
	<g class="st3">
		<path class="st10" d="M286.6,440.7h4.5v1.3h-4.5V440.7z"/>
		<path class="st10" d="M299.8,441.9v4.7h-1.5v-12.2h3.7c2.4,0,4.2,1.1,4.2,3.8c0,2.6-1.8,3.8-4.3,3.8H299.8z M301.9,440.7
			c1.8,0,2.8-0.9,2.8-2.6c0-1.8-1-2.6-2.8-2.6h-2.1v5.2H301.9z"/>
		<path class="st10" d="M308.3,434h1.4v12.6h-1.4V434z"/>
		<path class="st10" d="M312.5,440.5c0-1.5,1.2-2.5,3.2-2.5c2.1,0,3.1,0.9,3.1,3.1v3.4c0,0.7,0.1,0.9,0.8,1v1.2h-0.2
			c-1.3,0-1.8-0.5-1.9-1.5h0c-0.4,1-1.5,1.6-2.7,1.6c-1.7,0-2.7-0.9-2.7-2.4c0-0.9,0.4-1.7,1.3-2.1c0.9-0.5,2.2-0.6,4.1-0.7v-0.4
			c0-1.5-0.6-2.1-1.8-2.1c-1.2,0-1.7,0.7-1.8,1.4H312.5z M317.4,442.8v-0.2c-1.8,0.1-2.9,0.2-3.4,0.6c-0.3,0.2-0.5,0.6-0.5,1
			c0,0.9,0.6,1.3,1.5,1.3C316.1,445.6,317.4,444.9,317.4,442.8z"/>
		<path class="st10" d="M326.9,440.7c-0.1-0.9-0.7-1.6-1.9-1.6c-1.5,0-2.3,1.3-2.3,3.3c0,2,0.6,3.3,2.3,3.3c1.6,0,2-1.2,2.1-1.8h1.3
			c-0.2,2-1.6,2.9-3.4,2.9c-2.4,0-3.7-1.7-3.7-4.4c0-2.6,1.4-4.5,3.8-4.5c1.7,0,3.2,0.8,3.3,2.8H326.9z"/>
		<path class="st10" d="M333.8,446.8c-2.6,0-3.8-1.9-3.8-4.4c0-2.5,1.3-4.5,3.8-4.5c2.5,0,3.5,2,3.5,4.1v0.7h-5.8
			c0.1,1.7,0.8,2.9,2.4,2.9c1.4,0,1.8-0.8,1.9-1.3h1.4C336.9,445.8,335.6,446.8,333.8,446.8z M335.8,441.5c0-1.4-0.6-2.5-2.1-2.5
			c-1.3,0-2.1,1.1-2.3,2.6L335.8,441.5L335.8,441.5z"/>
		<path class="st10" d="M343.3,438.2h1.4l1.8,5.3c0.3,0.8,0.4,1.3,0.4,1.3h0c0,0,0.1-0.5,0.4-1.3l1.7-5.3h1.4l-3.1,9
			c-0.7,1.9-1.2,2.7-3.1,2.7c-0.3,0-0.6,0-0.9-0.1v-1.2c0.3,0.1,0.6,0.1,0.7,0.1c1.1,0,1.4-0.4,1.8-1.5l0.2-0.4L343.3,438.2z"/>
		<path class="st10" d="M351.9,442.4c0-2.6,1.4-4.4,3.8-4.4c2.5,0,3.8,1.8,3.8,4.4c0,2.6-1.4,4.4-3.8,4.4
			C353.1,446.8,351.9,445,351.9,442.4z M353.4,442.4c0,2.1,0.7,3.3,2.3,3.3c1.6,0,2.3-1.2,2.3-3.3c0-2-0.7-3.3-2.3-3.3
			C354.1,439.1,353.4,440.3,353.4,442.4z"/>
		<path class="st10" d="M363.2,443.3c0,0.6,0,1.3,0.3,1.7c0.3,0.4,0.7,0.6,1.3,0.6c1.6,0,2.3-1,2.3-2.9v-4.6h1.4v8.4h-1.4v-1.4h0
			c-0.4,0.9-1.3,1.6-2.7,1.6c-1.6,0-2.7-0.8-2.7-2.8v-5.9h1.4V443.3z"/>
		<path class="st10" d="M371.7,438.2h1.4v1.6h0c0.4-0.9,1.4-1.7,2.7-1.7h0.1v1.5h-0.3c-1.5,0-2.5,0.9-2.5,2.5v4.6h-1.4V438.2z"/>
		<path class="st10" d="M382.7,434h1.4v12.6h-1.4V434z"/>
		<path class="st10" d="M386.5,442.4c0-2.6,1.4-4.4,3.8-4.4c2.5,0,3.8,1.8,3.8,4.4c0,2.6-1.4,4.4-3.8,4.4
			C387.8,446.8,386.5,445,386.5,442.4z M388,442.4c0,2.1,0.7,3.3,2.3,3.3c1.6,0,2.3-1.2,2.3-3.3c0-2-0.7-3.3-2.3-3.3
			C388.7,439.1,388,440.3,388,442.4z"/>
		<path class="st10" d="M396.1,447.4h1.4c0.2,0.7,0.7,1.2,2.1,1.2c1.6,0,2.4-0.6,2.4-2.4v-1.2h0c-0.4,0.8-1.4,1.6-2.7,1.6
			c-1.8,0-3.4-1.1-3.4-4.2c0-2.8,1.5-4.3,3.6-4.3c1.4,0,2.2,0.8,2.5,1.5h0v-1.3h1.4v8.2c0,2.4-1.6,3.4-3.8,3.4
			C397.9,449.8,396.3,449.2,396.1,447.4z M402,441.9c0-1.7-0.9-2.8-2.4-2.8c-1.5,0-2.2,1.3-2.2,3.2c0,1.9,0.5,3.1,2.3,3.1
			c1.4,0,2.3-1.2,2.3-2.6V441.9z"/>
		<path class="st10" d="M405.8,442.4c0-2.6,1.4-4.4,3.8-4.4c2.5,0,3.8,1.8,3.8,4.4c0,2.6-1.4,4.4-3.8,4.4
			C407.1,446.8,405.8,445,405.8,442.4z M407.3,442.4c0,2.1,0.7,3.3,2.3,3.3c1.6,0,2.3-1.2,2.3-3.3c0-2-0.7-3.3-2.3-3.3
			C408,439.1,407.3,440.3,407.3,442.4z"/>
		<path class="st10" d="M419.2,438.2h1.5l1.6,5.7c0.1,0.5,0.3,1.1,0.3,1.1h0c0,0,0.2-0.6,0.3-1.1l1.8-5.7h1.5l1.8,5.7
			c0.2,0.5,0.3,1.1,0.3,1.1h0c0,0,0.1-0.6,0.3-1.1l1.7-5.7h1.4l-2.6,8.4h-1.5l-1.5-5c-0.2-0.8-0.5-1.8-0.5-1.8h0c0,0-0.3,1-0.5,1.8
			l-1.6,5h-1.5L419.2,438.2z"/>
		<path class="st10" d="M433.7,434.7h1.5v1.6h-1.5V434.7z M433.8,438.2h1.5v8.4h-1.5V438.2z"/>
		<path class="st10" d="M440.2,435.7v2.4h2.1v1.1h-2.1v5c0,0.9,0.4,1.2,1.3,1.2c0.4,0,0.9-0.1,0.9-0.1v1.2c0,0-0.6,0.1-1.3,0.1
			c-1.6,0-2.3-0.8-2.3-2.2v-5.2h-1.5v-1.1h0.3c1.1,0,1.4-0.3,1.4-1.9v-0.6H440.2z"/>
		<path class="st10" d="M449.7,441.4c0-0.6,0-1.3-0.3-1.7c-0.3-0.4-0.8-0.6-1.3-0.6c-1.6,0-2.3,1-2.3,2.4v5.1h-1.4V434h1.4v5.6h0
			c0.4-0.8,1.3-1.6,2.6-1.6c1.6,0,2.7,0.8,2.7,2.8v5.9h-1.4V441.4z"/>
		<path class="st10" d="M454.2,434.7h1.5v1.6h-1.5V434.7z M454.2,438.2h1.5v8.4h-1.5V438.2z"/>
		<path class="st10" d="M464.2,441.4c0-0.6,0-1.3-0.3-1.7c-0.3-0.4-0.8-0.6-1.3-0.6c-1.6,0-2.3,1-2.3,2.4v5.1h-1.4v-8.4h1.4v1.4h0
			c0.4-0.9,1.4-1.6,2.7-1.6c1.6,0,2.7,0.8,2.7,2.8v5.9h-1.4V441.4z"/>
		<path class="st10" d="M475,435.7v2.4h2.1v1.1H475v5c0,0.9,0.4,1.2,1.3,1.2c0.4,0,0.9-0.1,0.9-0.1v1.2c0,0-0.6,0.1-1.3,0.1
			c-1.6,0-2.3-0.8-2.3-2.2v-5.2h-1.5v-1.1h0.3c1.1,0,1.4-0.3,1.4-1.9v-0.6H475z"/>
		<path class="st10" d="M484.6,441.4c0-0.6,0-1.3-0.3-1.7c-0.3-0.4-0.8-0.6-1.3-0.6c-1.6,0-2.3,1-2.3,2.4v5.1h-1.4V434h1.4v5.6h0
			c0.4-0.8,1.3-1.6,2.6-1.6c1.6,0,2.7,0.8,2.7,2.8v5.9h-1.4V441.4z"/>
		<path class="st10" d="M492.2,446.8c-2.6,0-3.8-1.9-3.8-4.4c0-2.5,1.3-4.5,3.8-4.5c2.5,0,3.5,2,3.5,4.1v0.7h-5.8
			c0.1,1.7,0.8,2.9,2.4,2.9c1.4,0,1.8-0.8,1.9-1.3h1.4C495.2,445.8,494,446.8,492.2,446.8z M494.2,441.5c0-1.4-0.6-2.5-2.1-2.5
			c-1.3,0-2.1,1.1-2.3,2.6L494.2,441.5L494.2,441.5z"/>
		<path class="st10" d="M507.5,440.7c-0.1-0.9-0.7-1.6-1.9-1.6c-1.5,0-2.3,1.3-2.3,3.3c0,2,0.6,3.3,2.3,3.3c1.6,0,2-1.2,2.1-1.8h1.3
			c-0.2,2-1.6,2.9-3.4,2.9c-2.4,0-3.7-1.7-3.7-4.4c0-2.6,1.4-4.5,3.8-4.5c1.7,0,3.2,0.8,3.3,2.8H507.5z"/>
		<path class="st10" d="M511.3,438.2h1.4v1.6h0c0.4-0.9,1.4-1.7,2.7-1.7h0.1v1.5h-0.3c-1.5,0-2.5,0.9-2.5,2.5v4.6h-1.4V438.2z"/>
		<path class="st10" d="M516.8,442.4c0-2.6,1.4-4.4,3.8-4.4c2.5,0,3.8,1.8,3.8,4.4c0,2.6-1.4,4.4-3.8,4.4
			C518.1,446.8,516.8,445,516.8,442.4z M518.3,442.4c0,2.1,0.7,3.3,2.3,3.3c1.6,0,2.3-1.2,2.3-3.3c0-2-0.7-3.3-2.3-3.3
			C519.1,439.1,518.3,440.3,518.3,442.4z"/>
		<path class="st10" d="M526.8,438.2h1.4v1.4h0c0.5-0.9,1.4-1.6,2.7-1.6c1.8,0,3.4,1.1,3.4,4.3c0,3.1-1.6,4.5-3.5,4.5
			c-1.2,0-2.2-0.7-2.5-1.4h0v4.2h-1.4V438.2z M530.6,445.7c1.5,0,2.2-1.2,2.2-3.4c0-1.8-0.5-3.2-2.3-3.2c-1.5,0-2.4,1.3-2.4,2.7v0.9
			C528.2,444.4,529,445.7,530.6,445.7z"/>
		<path class="st10" d="M536.7,438.2h1.4v1.4h0c0.5-0.9,1.4-1.6,2.7-1.6c1.8,0,3.4,1.1,3.4,4.3c0,3.1-1.6,4.5-3.5,4.5
			c-1.2,0-2.2-0.7-2.5-1.4h0v4.2h-1.4V438.2z M540.5,445.7c1.5,0,2.2-1.2,2.2-3.4c0-1.8-0.5-3.2-2.3-3.2c-1.5,0-2.4,1.3-2.4,2.7v0.9
			C538.1,444.4,538.9,445.7,540.5,445.7z"/>
		<path class="st10" d="M546.6,434.7h1.5v1.6h-1.5V434.7z M546.7,438.2h1.5v8.4h-1.5V438.2z"/>
		<path class="st10" d="M556.7,441.4c0-0.6,0-1.3-0.3-1.7c-0.3-0.4-0.8-0.6-1.3-0.6c-1.6,0-2.3,1-2.3,2.4v5.1h-1.4v-8.4h1.4v1.4h0
			c0.4-0.9,1.4-1.6,2.7-1.6c1.6,0,2.7,0.8,2.7,2.8v5.9h-1.4V441.4z"/>
		<path class="st10" d="M560.6,447.4h1.4c0.2,0.7,0.7,1.2,2.1,1.2c1.6,0,2.4-0.6,2.4-2.4v-1.2h0c-0.4,0.8-1.4,1.6-2.7,1.6
			c-1.8,0-3.4-1.1-3.4-4.2c0-2.8,1.5-4.3,3.6-4.3c1.4,0,2.2,0.8,2.5,1.5h0v-1.3h1.4v8.2c0,2.4-1.6,3.4-3.8,3.4
			C562.5,449.8,560.8,449.2,560.6,447.4z M566.5,441.9c0-1.7-0.9-2.8-2.4-2.8c-1.5,0-2.2,1.3-2.2,3.2c0,1.9,0.5,3.1,2.3,3.1
			c1.4,0,2.3-1.2,2.3-2.6V441.9z"/>
		<path class="st10" d="M575.1,447.4h1.4c0.2,0.7,0.7,1.2,2.1,1.2c1.6,0,2.4-0.6,2.4-2.4v-1.2h0c-0.4,0.8-1.4,1.6-2.7,1.6
			c-1.8,0-3.4-1.1-3.4-4.2c0-2.8,1.5-4.3,3.6-4.3c1.4,0,2.2,0.8,2.5,1.5h0v-1.3h1.4v8.2c0,2.4-1.6,3.4-3.8,3.4
			C576.9,449.8,575.3,449.2,575.1,447.4z M581,441.9c0-1.7-0.9-2.8-2.4-2.8c-1.5,0-2.2,1.3-2.2,3.2c0,1.9,0.5,3.1,2.3,3.1
			c1.4,0,2.3-1.2,2.3-2.6V441.9z"/>
		<path class="st10" d="M586.8,443.3c0,0.6,0,1.3,0.3,1.7c0.3,0.4,0.7,0.6,1.3,0.6c1.6,0,2.3-1,2.3-2.9v-4.6h1.4v8.4h-1.4v-1.4h0
			c-0.4,0.9-1.3,1.6-2.7,1.6c-1.6,0-2.7-0.8-2.7-2.8v-5.9h1.4V443.3z"/>
		<path class="st10" d="M595.3,434.7h1.5v1.6h-1.5V434.7z M595.3,438.2h1.5v8.4h-1.5V438.2z"/>
		<path class="st10" d="M606.7,446.6h-1.4v-1.4h0c-0.4,0.8-1.4,1.6-2.7,1.6c-1.8,0-3.4-1.1-3.4-4.4c0-2.9,1.5-4.5,3.6-4.5
			c1.3,0,2.1,0.7,2.4,1.5h0V434h1.4V446.6z M605.3,442c0-1.8-0.9-2.9-2.3-2.9c-1.6,0-2.4,1.3-2.4,3.3c0,1.9,0.6,3.3,2.2,3.3
			c1.5,0,2.4-1.2,2.4-2.7V442z"/>
		<path class="st10" d="M612.9,446.8c-2.6,0-3.8-1.9-3.8-4.4c0-2.5,1.3-4.5,3.8-4.5c2.5,0,3.5,2,3.5,4.1v0.7h-5.8
			c0.1,1.7,0.8,2.9,2.4,2.9c1.4,0,1.8-0.8,1.9-1.3h1.4C616,445.8,614.7,446.8,612.9,446.8z M614.9,441.5c0-1.4-0.6-2.5-2.1-2.5
			c-1.3,0-2.1,1.1-2.3,2.6L614.9,441.5L614.9,441.5z"/>
		<path class="st10" d="M623,440.3c-0.1-0.8-0.7-1.2-1.7-1.2s-1.6,0.6-1.6,1.4c0,0.7,0.4,1,1.3,1.2l1.3,0.2c1.8,0.3,2.4,1,2.4,2.4
			c0,1.7-1.4,2.6-3.3,2.6c-1.7,0-3.2-0.8-3.3-2.6h1.4c0.1,0.7,0.4,1.5,1.9,1.5c1.2,0,1.9-0.5,1.9-1.4c0-0.7-0.2-1-1.3-1.2l-1.3-0.2
			c-1.5-0.2-2.3-0.9-2.3-2.3c0-1.5,1.1-2.6,3.1-2.6c1.8,0,2.9,0.8,3,2.3H623z"/>
		<path class="st10" d="M626.5,444.6h2v2h-2V444.6z"/>
		<path class="st10" d="M286.6,470.7h4.5v1.3h-4.5V470.7z"/>
		<path class="st10" d="M303.2,464.2c3,0,5.5,2,5.5,6.3c0,4.4-2.5,6.3-5.5,6.3c-3,0-5.5-2-5.5-6.3
			C297.8,466.1,300.3,464.2,303.2,464.2z M307.2,470.5c0-3.4-1.6-5.2-4-5.2c-2.3,0-3.9,1.7-3.9,5.2c0,3.3,1.6,5.1,3.9,5.1
			C305.5,475.7,307.2,473.8,307.2,470.5z"/>
		<path class="st10" d="M312.9,473.3c0,0.6,0,1.3,0.3,1.7c0.3,0.4,0.7,0.6,1.3,0.6c1.6,0,2.3-1,2.3-2.9v-4.6h1.4v8.4h-1.4v-1.4h0
			c-0.4,0.9-1.3,1.6-2.7,1.6c-1.6,0-2.7-0.8-2.7-2.8v-5.9h1.4V473.3z"/>
		<path class="st10" d="M323.2,465.7v2.4h2.1v1.1h-2.1v5c0,0.9,0.4,1.2,1.3,1.2c0.4,0,0.9-0.1,0.9-0.1v1.2c0,0-0.6,0.1-1.3,0.1
			c-1.6,0-2.3-0.8-2.3-2.2v-5.2h-1.5v-1.1h0.3c1.1,0,1.4-0.3,1.4-1.9v-0.6H323.2z"/>
		<path class="st10" d="M327.4,464h1.4v12.6h-1.4V464z"/>
		<path class="st10" d="M331.9,464.7h1.5v1.6h-1.5V464.7z M332,468.2h1.5v8.4H332V468.2z"/>
		<path class="st10" d="M341.9,471.4c0-0.6,0-1.3-0.3-1.7c-0.3-0.4-0.8-0.6-1.3-0.6c-1.6,0-2.3,1-2.3,2.4v5.1h-1.4v-8.4h1.4v1.4h0
			c0.4-0.9,1.4-1.6,2.7-1.6c1.6,0,2.7,0.8,2.7,2.8v5.9h-1.4V471.4z"/>
		<path class="st10" d="M349.5,476.8c-2.6,0-3.8-1.9-3.8-4.4c0-2.5,1.3-4.5,3.8-4.5c2.5,0,3.5,2,3.5,4.1v0.7h-5.8
			c0.1,1.7,0.8,2.9,2.4,2.9c1.4,0,1.8-0.8,1.9-1.3h1.4C352.6,475.8,351.3,476.8,349.5,476.8z M351.5,471.5c0-1.4-0.6-2.5-2.1-2.5
			c-1.3,0-2.1,1.1-2.3,2.6L351.5,471.5L351.5,471.5z"/>
		<path class="st10" d="M359.6,470.5c0-1.5,1.2-2.5,3.2-2.5c2.1,0,3.1,0.9,3.1,3.1v3.4c0,0.7,0.1,0.9,0.8,1v1.2h-0.2
			c-1.3,0-1.8-0.5-1.9-1.5h0c-0.4,1-1.5,1.6-2.7,1.6c-1.7,0-2.7-0.9-2.7-2.4c0-0.9,0.4-1.7,1.3-2.1c0.9-0.5,2.2-0.6,4.1-0.7v-0.4
			c0-1.5-0.6-2.1-1.8-2.1c-1.2,0-1.7,0.7-1.8,1.4H359.6z M364.5,472.8v-0.2c-1.8,0.1-2.9,0.2-3.4,0.6c-0.3,0.2-0.5,0.6-0.5,1
			c0,0.9,0.6,1.3,1.5,1.3C363.2,475.6,364.5,474.9,364.5,472.8z"/>
		<path class="st10" d="M369,464h1.4v12.6H369V464z"/>
		<path class="st10" d="M373.5,464h1.4v12.6h-1.4V464z"/>
		<path class="st10" d="M384.4,476.6H383v-7.3h-1.5v-1.1h1.5v-1.9c0-1.7,1-2.3,2.6-2.3c0.3,0,0.6,0,0.9,0.1v1.2
			c-0.2,0-0.4-0.1-0.8-0.1c-0.8,0-1.2,0.3-1.2,1.3v1.7h2v1.1h-2V476.6z"/>
		<path class="st10" d="M387.6,472.4c0-2.6,1.4-4.4,3.8-4.4c2.5,0,3.8,1.8,3.8,4.4c0,2.6-1.4,4.4-3.8,4.4
			C388.9,476.8,387.6,475,387.6,472.4z M389.1,472.4c0,2.1,0.7,3.3,2.3,3.3c1.6,0,2.3-1.2,2.3-3.3c0-2-0.7-3.3-2.3-3.3
			C389.9,469.1,389.1,470.3,389.1,472.4z"/>
		<path class="st10" d="M403,471.4c0-0.6,0-1.3-0.3-1.7c-0.3-0.4-0.8-0.6-1.3-0.6c-1.6,0-2.3,1-2.3,2.4v5.1h-1.4v-8.4h1.4v1.4h0
			c0.4-0.9,1.4-1.6,2.7-1.6c1.6,0,2.7,0.8,2.7,2.8v5.9H403V471.4z"/>
		<path class="st10" d="M409.3,465.7v2.4h2.1v1.1h-2.1v5c0,0.9,0.4,1.2,1.3,1.2c0.4,0,0.9-0.1,0.9-0.1v1.2c0,0-0.6,0.1-1.3,0.1
			c-1.6,0-2.3-0.8-2.3-2.2v-5.2h-1.5v-1.1h0.3c1.1,0,1.4-0.3,1.4-1.9v-0.6H409.3z"/>
		<path class="st10" d="M417.7,470.3c-0.1-0.8-0.7-1.2-1.7-1.2s-1.6,0.6-1.6,1.4c0,0.7,0.4,1,1.3,1.2l1.3,0.2c1.8,0.3,2.4,1,2.4,2.4
			c0,1.7-1.4,2.6-3.3,2.6c-1.7,0-3.2-0.8-3.3-2.6h1.4c0.1,0.7,0.4,1.5,1.9,1.5c1.2,0,1.9-0.5,1.9-1.4c0-0.7-0.2-1-1.3-1.2l-1.3-0.2
			c-1.5-0.2-2.3-0.9-2.3-2.3c0-1.5,1.1-2.6,3.1-2.6c1.8,0,2.9,0.8,3,2.3H417.7z"/>
		<path class="st10" d="M427.7,473.3c0,0.6,0,1.3,0.3,1.7c0.3,0.4,0.7,0.6,1.3,0.6c1.6,0,2.3-1,2.3-2.9v-4.6h1.4v8.4h-1.4v-1.4h0
			c-0.4,0.9-1.3,1.6-2.7,1.6c-1.6,0-2.7-0.8-2.7-2.8v-5.9h1.4V473.3z"/>
		<path class="st10" d="M440.3,470.3c-0.1-0.8-0.7-1.2-1.7-1.2s-1.6,0.6-1.6,1.4c0,0.7,0.4,1,1.3,1.2l1.3,0.2c1.8,0.3,2.4,1,2.4,2.4
			c0,1.7-1.4,2.6-3.3,2.6c-1.7,0-3.2-0.8-3.3-2.6h1.4c0.1,0.7,0.4,1.5,1.9,1.5c1.2,0,1.9-0.5,1.9-1.4c0-0.7-0.2-1-1.3-1.2l-1.3-0.2
			c-1.5-0.2-2.3-0.9-2.3-2.3c0-1.5,1.1-2.6,3.1-2.6c1.8,0,2.9,0.8,3,2.3H440.3z"/>
		<path class="st10" d="M447.5,476.8c-2.6,0-3.8-1.9-3.8-4.4c0-2.5,1.3-4.5,3.8-4.5c2.5,0,3.5,2,3.5,4.1v0.7h-5.8
			c0.1,1.7,0.8,2.9,2.4,2.9c1.4,0,1.8-0.8,1.9-1.3h1.4C450.6,475.8,449.3,476.8,447.5,476.8z M449.5,471.5c0-1.4-0.6-2.5-2.1-2.5
			c-1.3,0-2.1,1.1-2.3,2.6L449.5,471.5L449.5,471.5z"/>
		<path class="st10" d="M460.2,476.6h-1.4v-1.4h0c-0.4,0.8-1.4,1.6-2.7,1.6c-1.8,0-3.4-1.1-3.4-4.4c0-2.9,1.5-4.5,3.6-4.5
			c1.3,0,2.1,0.7,2.4,1.5h0V464h1.4V476.6z M458.8,472c0-1.8-0.9-2.9-2.3-2.9c-1.6,0-2.4,1.3-2.4,3.3c0,1.9,0.6,3.3,2.2,3.3
			c1.5,0,2.4-1.2,2.4-2.7V472z"/>
		<path class="st10" d="M467.9,464.7h1.5v1.6h-1.5V464.7z M467.9,468.2h1.5v8.4h-1.5V468.2z"/>
		<path class="st10" d="M477.9,471.4c0-0.6,0-1.3-0.3-1.7c-0.3-0.4-0.8-0.6-1.3-0.6c-1.6,0-2.3,1-2.3,2.4v5.1h-1.4v-8.4h1.4v1.4h0
			c0.4-0.9,1.4-1.6,2.7-1.6c1.6,0,2.7,0.8,2.7,2.8v5.9h-1.4V471.4z"/>
		<path class="st10" d="M486.1,468.2h1.4l1.8,5.3c0.3,0.8,0.4,1.3,0.4,1.3h0c0,0,0.1-0.5,0.4-1.3l1.7-5.3h1.4l-3.1,9
			c-0.7,1.9-1.2,2.7-3.1,2.7c-0.3,0-0.6,0-0.9-0.1v-1.2c0.3,0.1,0.6,0.1,0.7,0.1c1.1,0,1.4-0.4,1.8-1.5l0.2-0.4L486.1,468.2z"/>
		<path class="st10" d="M494.6,472.4c0-2.6,1.4-4.4,3.8-4.4c2.5,0,3.8,1.8,3.8,4.4c0,2.6-1.4,4.4-3.8,4.4
			C495.9,476.8,494.6,475,494.6,472.4z M496.1,472.4c0,2.1,0.7,3.3,2.3,3.3c1.6,0,2.3-1.2,2.3-3.3c0-2-0.7-3.3-2.3-3.3
			C496.8,469.1,496.1,470.3,496.1,472.4z"/>
		<path class="st10" d="M506,473.3c0,0.6,0,1.3,0.3,1.7c0.3,0.4,0.7,0.6,1.3,0.6c1.6,0,2.3-1,2.3-2.9v-4.6h1.4v8.4h-1.4v-1.4h0
			c-0.4,0.9-1.3,1.6-2.7,1.6c-1.6,0-2.7-0.8-2.7-2.8v-5.9h1.4V473.3z"/>
		<path class="st10" d="M514.5,468.2h1.4v1.6h0c0.4-0.9,1.4-1.7,2.7-1.7h0.1v1.5h-0.3c-1.5,0-2.5,0.9-2.5,2.5v4.6h-1.4V468.2z"/>
		<path class="st10" d="M532.2,476.6h-1.4v-1.4h0c-0.4,0.8-1.4,1.6-2.7,1.6c-1.8,0-3.4-1.1-3.4-4.4c0-2.9,1.5-4.5,3.6-4.5
			c1.3,0,2.1,0.7,2.4,1.5h0V464h1.4V476.6z M530.8,472c0-1.8-0.9-2.9-2.3-2.9c-1.6,0-2.4,1.3-2.4,3.3c0,1.9,0.6,3.3,2.2,3.3
			c1.5,0,2.4-1.2,2.4-2.7V472z"/>
		<path class="st10" d="M538.4,476.8c-2.6,0-3.8-1.9-3.8-4.4c0-2.5,1.3-4.5,3.8-4.5c2.5,0,3.5,2,3.5,4.1v0.7h-5.8
			c0.1,1.7,0.8,2.9,2.4,2.9c1.4,0,1.8-0.8,1.9-1.3h1.4C541.4,475.8,540.2,476.8,538.4,476.8z M540.4,471.5c0-1.4-0.6-2.5-2.1-2.5
			c-1.3,0-2.1,1.1-2.3,2.6L540.4,471.5L540.4,471.5z"/>
		<path class="st10" d="M548.5,470.3c-0.1-0.8-0.7-1.2-1.7-1.2s-1.6,0.6-1.6,1.4c0,0.7,0.4,1,1.3,1.2l1.3,0.2c1.8,0.3,2.4,1,2.4,2.4
			c0,1.7-1.4,2.6-3.3,2.6c-1.7,0-3.2-0.8-3.3-2.6h1.4c0.1,0.7,0.4,1.5,1.9,1.5c1.2,0,1.9-0.5,1.9-1.4c0-0.7-0.2-1-1.3-1.2l-1.3-0.2
			c-1.5-0.2-2.3-0.9-2.3-2.3c0-1.5,1.1-2.6,3.1-2.6c1.8,0,2.9,0.8,3,2.3H548.5z"/>
		<path class="st10" d="M552.5,464.7h1.5v1.6h-1.5V464.7z M552.6,468.2h1.5v8.4h-1.5V468.2z"/>
		<path class="st10" d="M556.7,477.4h1.4c0.2,0.7,0.7,1.2,2.1,1.2c1.6,0,2.4-0.6,2.4-2.4v-1.2h0c-0.4,0.8-1.4,1.6-2.7,1.6
			c-1.8,0-3.4-1.1-3.4-4.2c0-2.8,1.5-4.3,3.6-4.3c1.4,0,2.2,0.8,2.5,1.5h0v-1.3h1.4v8.2c0,2.4-1.6,3.4-3.8,3.4
			C558.5,479.8,556.8,479.2,556.7,477.4z M562.6,471.9c0-1.7-0.9-2.8-2.4-2.8c-1.5,0-2.2,1.3-2.2,3.2c0,1.9,0.5,3.1,2.3,3.1
			c1.4,0,2.3-1.2,2.3-2.6V471.9z"/>
		<path class="st10" d="M572.5,471.4c0-0.6,0-1.3-0.3-1.7c-0.3-0.4-0.8-0.6-1.3-0.6c-1.6,0-2.3,1-2.3,2.4v5.1h-1.4v-8.4h1.4v1.4h0
			c0.4-0.9,1.4-1.6,2.7-1.6c1.6,0,2.7,0.8,2.7,2.8v5.9h-1.4V471.4z"/>
		<path class="st10" d="M576.4,474.6h2v2h-2V474.6z"/>
		<path class="st10" d="M286.6,500.7h4.5v1.3h-4.5V500.7z"/>
		<path class="st10" d="M298.3,494.4h7.8v1.3h-6.3v4.1h5.8v1.3h-5.8v4.2h6.4v1.3h-7.9V494.4z"/>
		<path class="st10" d="M310.9,502.2l-2.7-4.1h1.7l1.8,2.9h0l1.9-2.9h1.6l-2.7,4l2.9,4.4h-1.7l-2.1-3.3h0l-2.1,3.3H308L310.9,502.2z
			"/>
		<path class="st10" d="M317.4,498.2h1.4v1.4h0c0.5-0.9,1.4-1.6,2.7-1.6c1.8,0,3.4,1.1,3.4,4.3c0,3.1-1.6,4.5-3.5,4.5
			c-1.2,0-2.2-0.7-2.5-1.4h0v4.2h-1.4V498.2z M321.2,505.7c1.5,0,2.2-1.2,2.2-3.4c0-1.8-0.5-3.2-2.3-3.2c-1.5,0-2.4,1.3-2.4,2.7v0.9
			C318.8,504.4,319.6,505.7,321.2,505.7z"/>
		<path class="st10" d="M326.7,502.4c0-2.6,1.4-4.4,3.8-4.4c2.5,0,3.8,1.8,3.8,4.4c0,2.6-1.4,4.4-3.8,4.4
			C328,506.8,326.7,505,326.7,502.4z M328.2,502.4c0,2.1,0.7,3.3,2.3,3.3c1.6,0,2.3-1.2,2.3-3.3c0-2-0.7-3.3-2.3-3.3
			C329,499.1,328.2,500.3,328.2,502.4z"/>
		<path class="st10" d="M336.7,498.2h1.4v1.6h0c0.4-0.9,1.4-1.7,2.7-1.7h0.1v1.5h-0.3c-1.5,0-2.5,0.9-2.5,2.5v4.6h-1.4V498.2z"/>
		<path class="st10" d="M345.1,495.7v2.4h2.1v1.1h-2.1v5c0,0.9,0.4,1.2,1.3,1.2c0.4,0,0.9-0.1,0.9-0.1v1.2c0,0-0.6,0.1-1.3,0.1
			c-1.6,0-2.3-0.8-2.3-2.2v-5.2h-1.5v-1.1h0.3c1.1,0,1.4-0.3,1.4-1.9v-0.6H345.1z"/>
		<path class="st10" d="M353.5,500.5c0-1.5,1.2-2.5,3.2-2.5c2.1,0,3.1,0.9,3.1,3.1v3.4c0,0.7,0.1,0.9,0.8,1v1.2h-0.2
			c-1.3,0-1.8-0.5-1.9-1.5h0c-0.4,1-1.5,1.6-2.7,1.6c-1.7,0-2.7-0.9-2.7-2.4c0-0.9,0.4-1.7,1.3-2.1c0.9-0.5,2.2-0.6,4.1-0.7v-0.4
			c0-1.5-0.6-2.1-1.8-2.1c-1.2,0-1.7,0.7-1.8,1.4H353.5z M358.4,502.8v-0.2c-1.8,0.1-2.9,0.2-3.4,0.6c-0.3,0.2-0.5,0.6-0.5,1
			c0,0.9,0.6,1.3,1.5,1.3C357.1,505.6,358.4,504.9,358.4,502.8z"/>
		<path class="st10" d="M368.2,501.4c0-0.6,0-1.3-0.3-1.7c-0.3-0.4-0.8-0.6-1.3-0.6c-1.6,0-2.3,1-2.3,2.4v5.1h-1.4v-8.4h1.4v1.4h0
			c0.4-0.9,1.4-1.6,2.7-1.6c1.6,0,2.7,0.8,2.7,2.8v5.9h-1.4V501.4z"/>
		<path class="st10" d="M379.5,506.6h-1.4v-1.4h0c-0.4,0.8-1.4,1.6-2.7,1.6c-1.8,0-3.4-1.1-3.4-4.4c0-2.9,1.5-4.5,3.6-4.5
			c1.3,0,2.1,0.7,2.4,1.5h0V494h1.4V506.6z M378.1,502c0-1.8-0.9-2.9-2.3-2.9c-1.6,0-2.4,1.3-2.4,3.3c0,1.9,0.6,3.3,2.2,3.3
			c1.5,0,2.4-1.2,2.4-2.7V502z"/>
		<path class="st10" d="M391.3,500.3c-0.1-0.8-0.7-1.2-1.7-1.2s-1.6,0.6-1.6,1.4c0,0.7,0.4,1,1.3,1.2l1.3,0.2c1.8,0.3,2.4,1,2.4,2.4
			c0,1.7-1.4,2.6-3.3,2.6c-1.7,0-3.2-0.8-3.3-2.6h1.4c0.1,0.7,0.4,1.5,1.9,1.5c1.2,0,1.9-0.5,1.9-1.4c0-0.7-0.2-1-1.3-1.2l-1.3-0.2
			c-1.5-0.2-2.3-0.9-2.3-2.3c0-1.5,1.1-2.6,3.1-2.6c1.8,0,2.9,0.8,3,2.3H391.3z"/>
		<path class="st10" d="M396.7,503.3c0,0.6,0,1.3,0.3,1.7c0.3,0.4,0.7,0.6,1.3,0.6c1.6,0,2.3-1,2.3-2.9v-4.6h1.4v8.4h-1.4v-1.4h0
			c-0.4,0.9-1.3,1.6-2.7,1.6c-1.6,0-2.7-0.8-2.7-2.8v-5.9h1.4V503.3z"/>
		<path class="st10" d="M405.2,494h1.4v5.6h0c0.5-0.9,1.4-1.6,2.7-1.6c1.8,0,3.4,1.1,3.4,4.3c0,3.1-1.6,4.5-3.5,4.5
			c-1.3,0-2.2-0.7-2.6-1.6h0v1.3h-1.4V494z M411.2,502.3c0-1.8-0.5-3.2-2.3-3.2c-1.5,0-2.4,1.3-2.4,2.7v0.9c0,1.7,0.8,3,2.4,3
			C410.5,505.7,411.2,504.5,411.2,502.3z"/>
		<path class="st10" d="M415.1,498.2h1.4v1.4h0c0.4-0.9,1.4-1.6,2.7-1.6c1.3,0,2.2,0.6,2.5,1.7h0c0.3-0.9,1.4-1.7,2.8-1.7
			c1.6,0,2.7,0.8,2.7,2.8v5.9h-1.4v-5.2c0-0.6,0-1.3-0.3-1.7c-0.3-0.4-0.8-0.5-1.3-0.5c-1.6,0-2.3,1-2.3,2.4v5.1h-1.4v-5.2
			c0-0.6,0-1.2-0.3-1.7c-0.3-0.4-0.8-0.6-1.3-0.6c-1.6,0-2.3,1-2.3,2.4v5.1h-1.4V498.2z"/>
		<path class="st10" d="M430.3,494.7h1.5v1.6h-1.5V494.7z M430.3,498.2h1.5v8.4h-1.5V498.2z"/>
		<path class="st10" d="M436.7,495.7v2.4h2.1v1.1h-2.1v5c0,0.9,0.4,1.2,1.3,1.2c0.4,0,0.9-0.1,0.9-0.1v1.2c0,0-0.6,0.1-1.3,0.1
			c-1.6,0-2.3-0.8-2.3-2.2v-5.2h-1.5v-1.1h0.3c1.1,0,1.4-0.3,1.4-1.9v-0.6H436.7z"/>
		<path class="st10" d="M445.4,494h1.4v12.6h-1.4V494z"/>
		<path class="st10" d="M449.3,502.4c0-2.6,1.4-4.4,3.8-4.4c2.5,0,3.8,1.8,3.8,4.4c0,2.6-1.4,4.4-3.8,4.4
			C450.5,506.8,449.3,505,449.3,502.4z M450.7,502.4c0,2.1,0.7,3.3,2.3,3.3c1.6,0,2.3-1.2,2.3-3.3c0-2-0.7-3.3-2.3-3.3
			C451.5,499.1,450.7,500.3,450.7,502.4z"/>
		<path class="st10" d="M458.9,507.4h1.4c0.2,0.7,0.7,1.2,2.1,1.2c1.6,0,2.4-0.6,2.4-2.4v-1.2h0c-0.4,0.8-1.4,1.6-2.7,1.6
			c-1.8,0-3.4-1.1-3.4-4.2c0-2.8,1.5-4.3,3.6-4.3c1.4,0,2.2,0.8,2.5,1.5h0v-1.3h1.4v8.2c0,2.4-1.6,3.4-3.8,3.4
			C460.7,509.8,459,509.2,458.9,507.4z M464.8,501.9c0-1.7-0.9-2.8-2.4-2.8c-1.5,0-2.2,1.3-2.2,3.2c0,1.9,0.5,3.1,2.3,3.1
			c1.4,0,2.3-1.2,2.3-2.6V501.9z"/>
		<path class="st10" d="M468.5,502.4c0-2.6,1.4-4.4,3.8-4.4c2.5,0,3.8,1.8,3.8,4.4c0,2.6-1.4,4.4-3.8,4.4
			C469.8,506.8,468.5,505,468.5,502.4z M470,502.4c0,2.1,0.7,3.3,2.3,3.3c1.6,0,2.3-1.2,2.3-3.3c0-2-0.7-3.3-2.3-3.3
			C470.8,499.1,470,500.3,470,502.4z"/>
		<path class="st10" d="M482.8,500.3c-0.1-0.8-0.7-1.2-1.7-1.2s-1.6,0.6-1.6,1.4c0,0.7,0.4,1,1.3,1.2l1.3,0.2c1.8,0.3,2.4,1,2.4,2.4
			c0,1.7-1.4,2.6-3.3,2.6c-1.7,0-3.2-0.8-3.3-2.6h1.4c0.1,0.7,0.4,1.5,1.9,1.5c1.2,0,1.9-0.5,1.9-1.4c0-0.7-0.2-1-1.3-1.2l-1.3-0.2
			c-1.5-0.2-2.3-0.9-2.3-2.3c0-1.5,1.1-2.6,3.1-2.6c1.8,0,2.9,0.8,3,2.3H482.8z"/>
		<path class="st10" d="M491,500.5c0-1.5,1.2-2.5,3.2-2.5c2.1,0,3.1,0.9,3.1,3.1v3.4c0,0.7,0.1,0.9,0.8,1v1.2h-0.2
			c-1.3,0-1.8-0.5-1.9-1.5h0c-0.4,1-1.5,1.6-2.7,1.6c-1.7,0-2.7-0.9-2.7-2.4c0-0.9,0.4-1.7,1.3-2.1c0.9-0.5,2.2-0.6,4.1-0.7v-0.4
			c0-1.5-0.6-2.1-1.8-2.1c-1.2,0-1.7,0.7-1.8,1.4H491z M495.9,502.8v-0.2c-1.8,0.1-2.9,0.2-3.4,0.6c-0.3,0.2-0.5,0.6-0.5,1
			c0,0.9,0.6,1.3,1.5,1.3C494.6,505.6,495.9,504.9,495.9,502.8z"/>
		<path class="st10" d="M502.1,495.7v2.4h2.1v1.1h-2.1v5c0,0.9,0.4,1.2,1.3,1.2c0.4,0,0.9-0.1,0.9-0.1v1.2c0,0-0.6,0.1-1.3,0.1
			c-1.6,0-2.3-0.8-2.3-2.2v-5.2h-1.5v-1.1h0.3c1.1,0,1.4-0.3,1.4-1.9v-0.6H502.1z"/>
		<path class="st10" d="M512.6,497.9h-2.4v-1h0.4c0.8,0,1.4-0.2,1.7-0.6c0.4-0.4,0.5-0.8,0.5-1.6h1.2v11.9h-1.5V497.9z"/>
		<path class="st10" d="M521.6,494.6c2.6,0,4.3,2,4.3,6.1c0,4.1-1.7,6.1-4.3,6.1c-2.6,0-4.2-2-4.2-6.1
			C517.3,496.6,519,494.6,521.6,494.6z M524.3,500.7c0-3.3-1-5-2.7-5c-1.7,0-2.7,1.6-2.7,5c0,3.3,1,4.9,2.7,4.9
			C523.3,505.7,524.3,504,524.3,500.7z"/>
		<path class="st10" d="M532.5,494.6c2.6,0,4.3,2,4.3,6.1c0,4.1-1.7,6.1-4.3,6.1c-2.6,0-4.2-2-4.2-6.1
			C528.3,496.6,530,494.6,532.5,494.6z M535.3,500.7c0-3.3-1-5-2.7-5c-1.7,0-2.7,1.6-2.7,5c0,3.3,1,4.9,2.7,4.9
			C534.2,505.7,535.3,504,535.3,500.7z"/>
		<path class="st10" d="M543.5,494.6c2.6,0,4.3,2,4.3,6.1c0,4.1-1.7,6.1-4.3,6.1c-2.6,0-4.2-2-4.2-6.1
			C539.3,496.6,540.9,494.6,543.5,494.6z M546.2,500.7c0-3.3-1-5-2.7-5c-1.7,0-2.7,1.6-2.7,5c0,3.3,1,4.9,2.7,4.9
			C545.2,505.7,546.2,504,546.2,500.7z"/>
		<path class="st10" d="M550.5,498.2h1.4v1.4h0c0.5-0.9,1.4-1.6,2.7-1.6c1.8,0,3.4,1.1,3.4,4.3c0,3.1-1.6,4.5-3.5,4.5
			c-1.2,0-2.2-0.7-2.5-1.4h0v4.2h-1.4V498.2z M554.4,505.7c1.5,0,2.2-1.2,2.2-3.4c0-1.8-0.5-3.2-2.3-3.2c-1.5,0-2.4,1.3-2.4,2.7v0.9
			C551.9,504.4,552.8,505.7,554.4,505.7z"/>
		<path class="st10" d="M562,502.2l-2.7-4.1h1.7l1.8,2.9h0l1.9-2.9h1.6l-2.7,4l2.9,4.4h-1.7l-2.1-3.3h0l-2.1,3.3h-1.6L562,502.2z"/>
		<path class="st10" d="M577.3,500.3c-0.1-0.8-0.7-1.2-1.7-1.2s-1.6,0.6-1.6,1.4c0,0.7,0.4,1,1.3,1.2l1.3,0.2c1.8,0.3,2.4,1,2.4,2.4
			c0,1.7-1.4,2.6-3.3,2.6c-1.7,0-3.2-0.8-3.3-2.6h1.4c0.1,0.7,0.4,1.5,1.9,1.5c1.2,0,1.9-0.5,1.9-1.4c0-0.7-0.2-1-1.3-1.2l-1.3-0.2
			c-1.5-0.2-2.3-0.9-2.3-2.3c0-1.5,1.1-2.6,3.1-2.6c1.8,0,2.9,0.8,3,2.3H577.3z"/>
		<path class="st10" d="M588.2,509.6h-1.4v-4.3h0c-0.4,0.8-1.3,1.5-2.6,1.5c-1.8,0-3.4-1.1-3.4-4.4c0-2.9,1.5-4.5,3.6-4.5
			c1.3,0,2.1,0.7,2.4,1.5h0v-1.3h1.4V509.6z M586.8,502.9V502c0-1.8-0.9-2.9-2.3-2.9c-1.6,0-2.4,1.3-2.4,3.3c0,1.9,0.6,3.3,2.2,3.3
			C585.8,505.7,586.8,504.5,586.8,502.9z"/>
		<path class="st10" d="M592.6,503.3c0,0.6,0,1.3,0.3,1.7c0.3,0.4,0.7,0.6,1.3,0.6c1.6,0,2.3-1,2.3-2.9v-4.6h1.4v8.4h-1.4v-1.4h0
			c-0.4,0.9-1.3,1.6-2.7,1.6c-1.6,0-2.7-0.8-2.7-2.8v-5.9h1.4V503.3z"/>
		<path class="st10" d="M600.7,500.5c0-1.5,1.2-2.5,3.2-2.5c2.1,0,3.1,0.9,3.1,3.1v3.4c0,0.7,0.1,0.9,0.8,1v1.2h-0.2
			c-1.3,0-1.8-0.5-1.9-1.5h0c-0.4,1-1.5,1.6-2.7,1.6c-1.7,0-2.7-0.9-2.7-2.4c0-0.9,0.4-1.7,1.3-2.1c0.9-0.5,2.2-0.6,4.1-0.7v-0.4
			c0-1.5-0.6-2.1-1.8-2.1c-1.2,0-1.7,0.7-1.8,1.4H600.7z M605.6,502.8v-0.2c-1.8,0.1-2.9,0.2-3.4,0.6c-0.3,0.2-0.5,0.6-0.5,1
			c0,0.9,0.6,1.3,1.5,1.3C604.3,505.6,605.6,504.9,605.6,502.8z"/>
		<path class="st10" d="M610.1,498.2h1.4v1.6h0c0.4-0.9,1.4-1.7,2.7-1.7h0.1v1.5H614c-1.5,0-2.5,0.9-2.5,2.5v4.6h-1.4V498.2z"/>
		<path class="st10" d="M619.4,506.8c-2.6,0-3.8-1.9-3.8-4.4c0-2.5,1.3-4.5,3.8-4.5c2.5,0,3.5,2,3.5,4.1v0.7H617
			c0.1,1.7,0.8,2.9,2.4,2.9c1.4,0,1.8-0.8,1.9-1.3h1.4C622.4,505.8,621.2,506.8,619.4,506.8z M621.4,501.5c0-1.4-0.6-2.5-2.1-2.5
			c-1.3,0-2.1,1.1-2.3,2.6L621.4,501.5L621.4,501.5z"/>
		<path class="st10" d="M631.6,495.7v2.4h2.1v1.1h-2.1v5c0,0.9,0.4,1.2,1.3,1.2c0.4,0,0.9-0.1,0.9-0.1v1.2c0,0-0.6,0.1-1.3,0.1
			c-1.6,0-2.3-0.8-2.3-2.2v-5.2h-1.5v-1.1h0.3c1.1,0,1.4-0.3,1.4-1.9v-0.6H631.6z"/>
		<path class="st10" d="M635.2,502.4c0-2.6,1.4-4.4,3.8-4.4c2.5,0,3.8,1.8,3.8,4.4c0,2.6-1.4,4.4-3.8,4.4
			C636.5,506.8,635.2,505,635.2,502.4z M636.7,502.4c0,2.1,0.7,3.3,2.3,3.3c1.6,0,2.3-1.2,2.3-3.3c0-2-0.7-3.3-2.3-3.3
			C637.4,499.1,636.7,500.3,636.7,502.4z"/>
		<path class="st10" d="M644.8,498.2h2v2h-2V498.2z M644.8,506.6v-2h2v2H644.8z"/>
		<path class="st10" d="M304.6,530.7h4.5v1.3h-4.5V530.7z"/>
		<path class="st10" d="M315.1,536.6v-1.3h0.3c2.6,0,3-0.7,3-2.5v-8.5h1.5v8.7c0,2.6-1.4,3.6-4.1,3.6H315.1z"/>
		<path class="st10" d="M324.8,531.9v4.7h-1.5v-12.2h3.7c2.4,0,4.2,1.1,4.2,3.8c0,2.6-1.8,3.8-4.3,3.8H324.8z M326.9,530.7
			c1.8,0,2.8-0.9,2.8-2.6c0-1.8-1-2.6-2.8-2.6h-2.1v5.2H326.9z"/>
		<path class="st10" d="M334.7,530.6c0,3.2,1.4,5.1,3.9,5.1c2.3,0,3.7-1.3,3.7-3.7v-0.2h-3.5v-1.3h5v6.2h-1.3v-1.8h-0.1
			c-0.6,1.1-1.8,2-3.8,2c-3.1,0-5.4-2-5.4-6.3c0-4,2.4-6.4,5.6-6.4c2.5,0,4.3,1.3,4.6,3.4h-1.6c-0.2-1.4-1.5-2.2-3.1-2.2
			C336.1,525.4,334.7,527.4,334.7,530.6z"/>
		<path class="st10" d="M346.8,534.6h1.8l-1.3,3.8h-1L346.8,534.6z"/>
		<path class="st10" d="M357,531.9v4.7h-1.5v-12.2h3.7c2.4,0,4.2,1.1,4.2,3.8c0,2.6-1.8,3.8-4.3,3.8H357z M359,530.7
			c1.8,0,2.8-0.9,2.8-2.6c0-1.8-1-2.6-2.8-2.6H357v5.2H359z"/>
		<path class="st10" d="M365.8,524.4h1.9l5.4,9.1c0.4,0.7,0.6,1.2,0.6,1.2h0v-10.3h1.4v12.2h-1.9l-5.4-9.1c-0.5-0.8-0.6-1.2-0.6-1.2
			h0v10.3h-1.4V524.4z"/>
		<path class="st10" d="M379.7,530.6c0,3.2,1.4,5.1,3.9,5.1c2.3,0,3.7-1.3,3.7-3.7v-0.2h-3.5v-1.3h5v6.2h-1.3v-1.8h-0.1
			c-0.6,1.1-1.8,2-3.8,2c-3.1,0-5.4-2-5.4-6.3c0-4,2.4-6.4,5.6-6.4c2.5,0,4.3,1.3,4.6,3.4h-1.6c-0.2-1.4-1.5-2.2-3.1-2.2
			C381.1,525.4,379.7,527.4,379.7,530.6z"/>
		<path class="st10" d="M391.7,528.2h2v2h-2V528.2z M391.7,536.6v-2h2v2H391.7z"/>
		<path class="st10" d="M405,530.3c-0.1-0.8-0.7-1.2-1.7-1.2s-1.6,0.6-1.6,1.4c0,0.7,0.4,1,1.3,1.2l1.3,0.2c1.8,0.3,2.4,1,2.4,2.4
			c0,1.7-1.4,2.6-3.3,2.6c-1.7,0-3.2-0.8-3.3-2.6h1.4c0.1,0.7,0.4,1.5,1.9,1.5c1.2,0,1.9-0.5,1.9-1.4c0-0.7-0.2-1-1.3-1.2l-1.3-0.2
			c-1.5-0.2-2.3-0.9-2.3-2.3c0-1.5,1.1-2.6,3.1-2.6c1.8,0,2.9,0.8,3,2.3H405z"/>
		<path class="st10" d="M412.2,536.8c-2.6,0-3.8-1.9-3.8-4.4c0-2.5,1.3-4.5,3.8-4.5c2.5,0,3.5,2,3.5,4.1v0.7h-5.8
			c0.1,1.7,0.8,2.9,2.4,2.9c1.4,0,1.8-0.8,1.9-1.3h1.4C415.2,535.8,414,536.8,412.2,536.8z M414.2,531.5c0-1.4-0.6-2.5-2.1-2.5
			c-1.3,0-2.1,1.1-2.3,2.6L414.2,531.5L414.2,531.5z"/>
		<path class="st10" d="M419.8,525.7v2.4h2.1v1.1h-2.1v5c0,0.9,0.4,1.2,1.3,1.2c0.4,0,0.9-0.1,0.9-0.1v1.2c0,0-0.6,0.1-1.3,0.1
			c-1.6,0-2.3-0.8-2.3-2.2v-5.2h-1.5v-1.1h0.3c1.1,0,1.4-0.3,1.4-1.9v-0.6H419.8z"/>
		<path class="st10" d="M430.3,525.7v2.4h2.1v1.1h-2.1v5c0,0.9,0.4,1.2,1.3,1.2c0.4,0,0.9-0.1,0.9-0.1v1.2c0,0-0.6,0.1-1.3,0.1
			c-1.6,0-2.3-0.8-2.3-2.2v-5.2h-1.5v-1.1h0.3c1.1,0,1.4-0.3,1.4-1.9v-0.6H430.3z"/>
		<path class="st10" d="M433.9,532.4c0-2.6,1.4-4.4,3.8-4.4c2.5,0,3.8,1.8,3.8,4.4c0,2.6-1.4,4.4-3.8,4.4
			C435.2,536.8,433.9,535,433.9,532.4z M435.4,532.4c0,2.1,0.7,3.3,2.3,3.3c1.6,0,2.3-1.2,2.3-3.3c0-2-0.7-3.3-2.3-3.3
			C436.2,529.1,435.4,530.3,435.4,532.4z"/>
		<path class="st10" d="M448.4,528.2h1.4v1.4h0c0.4-0.9,1.4-1.6,2.7-1.6c1.3,0,2.2,0.6,2.5,1.7h0c0.3-0.9,1.4-1.7,2.8-1.7
			c1.6,0,2.7,0.8,2.7,2.8v5.9h-1.4v-5.2c0-0.6,0-1.3-0.3-1.7c-0.3-0.4-0.8-0.5-1.3-0.5c-1.6,0-2.3,1-2.3,2.4v5.1h-1.4v-5.2
			c0-0.6,0-1.2-0.3-1.7c-0.3-0.4-0.8-0.6-1.3-0.6c-1.6,0-2.3,1-2.3,2.4v5.1h-1.4V528.2z"/>
		<path class="st10" d="M463.3,530.5c0-1.5,1.2-2.5,3.2-2.5c2.1,0,3.1,0.9,3.1,3.1v3.4c0,0.7,0.1,0.9,0.8,1v1.2h-0.2
			c-1.3,0-1.8-0.5-1.9-1.5h0c-0.4,1-1.5,1.6-2.7,1.6c-1.7,0-2.7-0.9-2.7-2.4c0-0.9,0.4-1.7,1.3-2.1c0.9-0.5,2.2-0.6,4.1-0.7v-0.4
			c0-1.5-0.6-2.1-1.8-2.1c-1.2,0-1.7,0.7-1.8,1.4H463.3z M468.2,532.8v-0.2c-1.8,0.1-2.9,0.2-3.4,0.6c-0.3,0.2-0.5,0.6-0.5,1
			c0,0.9,0.6,1.3,1.5,1.3C466.8,535.6,468.2,534.9,468.2,532.8z"/>
		<path class="st10" d="M474.3,532.2l-2.7-4.1h1.7l1.8,2.9h0l1.9-2.9h1.6l-2.7,4l2.9,4.4h-1.7l-2.1-3.3h0l-2.1,3.3h-1.6L474.3,532.2
			z"/>
		<path class="st10" d="M480.8,524.7h1.5v1.6h-1.5V524.7z M480.9,528.2h1.5v8.4h-1.5V528.2z"/>
		<path class="st10" d="M485.5,528.2h1.4v1.4h0c0.4-0.9,1.4-1.6,2.7-1.6c1.3,0,2.2,0.6,2.5,1.7h0c0.3-0.9,1.4-1.7,2.8-1.7
			c1.6,0,2.7,0.8,2.7,2.8v5.9h-1.4v-5.2c0-0.6,0-1.3-0.3-1.7c-0.3-0.4-0.8-0.5-1.3-0.5c-1.6,0-2.3,1-2.3,2.4v5.1h-1.4v-5.2
			c0-0.6,0-1.2-0.3-1.7c-0.3-0.4-0.8-0.6-1.3-0.6c-1.6,0-2.3,1-2.3,2.4v5.1h-1.4V528.2z"/>
		<path class="st10" d="M502.1,533.3c0,0.6,0,1.3,0.3,1.7c0.3,0.4,0.7,0.6,1.3,0.6c1.6,0,2.3-1,2.3-2.9v-4.6h1.4v8.4H506v-1.4h0
			c-0.4,0.9-1.3,1.6-2.7,1.6c-1.6,0-2.7-0.8-2.7-2.8v-5.9h1.4V533.3z"/>
		<path class="st10" d="M510.6,528.2h1.4v1.4h0c0.4-0.9,1.4-1.6,2.7-1.6c1.3,0,2.2,0.6,2.5,1.7h0c0.3-0.9,1.4-1.7,2.8-1.7
			c1.6,0,2.7,0.8,2.7,2.8v5.9h-1.4v-5.2c0-0.6,0-1.3-0.3-1.7c-0.3-0.4-0.8-0.5-1.3-0.5c-1.6,0-2.3,1-2.3,2.4v5.1h-1.4v-5.2
			c0-0.6,0-1.2-0.3-1.7c-0.3-0.4-0.8-0.6-1.3-0.6c-1.6,0-2.3,1-2.3,2.4v5.1h-1.4V528.2z"/>
		<path class="st10" d="M537,539.6h-1.4v-4.3h0c-0.4,0.8-1.3,1.5-2.6,1.5c-1.8,0-3.4-1.1-3.4-4.4c0-2.9,1.5-4.5,3.6-4.5
			c1.3,0,2.1,0.7,2.4,1.5h0v-1.3h1.4V539.6z M535.6,532.9V532c0-1.8-0.9-2.9-2.3-2.9c-1.6,0-2.4,1.3-2.4,3.3c0,1.9,0.6,3.3,2.2,3.3
			C534.7,535.7,535.6,534.5,535.6,532.9z"/>
		<path class="st10" d="M541.5,533.3c0,0.6,0,1.3,0.3,1.7c0.3,0.4,0.7,0.6,1.3,0.6c1.6,0,2.3-1,2.3-2.9v-4.6h1.4v8.4h-1.4v-1.4h0
			c-0.4,0.9-1.3,1.6-2.7,1.6c-1.6,0-2.7-0.8-2.7-2.8v-5.9h1.4V533.3z"/>
		<path class="st10" d="M549.6,530.5c0-1.5,1.2-2.5,3.2-2.5c2.1,0,3.1,0.9,3.1,3.1v3.4c0,0.7,0.1,0.9,0.8,1v1.2h-0.2
			c-1.3,0-1.8-0.5-1.9-1.5h0c-0.4,1-1.5,1.6-2.7,1.6c-1.7,0-2.7-0.9-2.7-2.4c0-0.9,0.4-1.7,1.3-2.1c0.9-0.5,2.2-0.6,4.1-0.7v-0.4
			c0-1.5-0.6-2.1-1.8-2.1c-1.2,0-1.7,0.7-1.8,1.4H549.6z M554.5,532.8v-0.2c-1.8,0.1-2.9,0.2-3.4,0.6c-0.3,0.2-0.5,0.6-0.5,1
			c0,0.9,0.6,1.3,1.5,1.3C553.2,535.6,554.5,534.9,554.5,532.8z"/>
		<path class="st10" d="M558.9,524h1.4v12.6h-1.4V524z"/>
		<path class="st10" d="M563.5,524.7h1.5v1.6h-1.5V524.7z M563.5,528.2h1.5v8.4h-1.5V528.2z"/>
		<path class="st10" d="M569.9,525.7v2.4h2.1v1.1h-2.1v5c0,0.9,0.4,1.2,1.3,1.2c0.4,0,0.9-0.1,0.9-0.1v1.2c0,0-0.6,0.1-1.3,0.1
			c-1.6,0-2.3-0.8-2.3-2.2v-5.2H567v-1.1h0.3c1.1,0,1.4-0.3,1.4-1.9v-0.6H569.9z"/>
		<path class="st10" d="M573.5,528.2h1.4l1.8,5.3c0.3,0.8,0.4,1.3,0.4,1.3h0c0,0,0.1-0.5,0.4-1.3l1.7-5.3h1.4l-3.1,9
			c-0.7,1.9-1.2,2.7-3.1,2.7c-0.3,0-0.6,0-0.9-0.1v-1.2c0.3,0.1,0.6,0.1,0.7,0.1c1.1,0,1.4-0.4,1.8-1.5l0.2-0.4L573.5,528.2z"/>
		<path class="st10" d="M581.2,534.6h2v2h-2V534.6z"/>
		<path class="st10" d="M304.6,560.7h4.5v1.3h-4.5V560.7z"/>
		<path class="st10" d="M317.9,561.9v4.7h-1.5v-12.2h3.7c2.4,0,4.2,1.1,4.2,3.8c0,2.6-1.8,3.8-4.3,3.8H317.9z M319.9,560.7
			c1.8,0,2.8-0.9,2.8-2.6c0-1.8-1-2.6-2.8-2.6h-2.1v5.2H319.9z"/>
		<path class="st10" d="M326.8,554.4h3.8c3.3,0,5.9,1.6,5.9,6c0,4.3-2.4,6.3-5.7,6.3h-3.9V554.4z M330.5,565.3
			c2.6,0,4.4-1.3,4.4-4.9c0-3.4-1.8-4.7-4.3-4.7h-2.4v9.7H330.5z"/>
		<path class="st10" d="M340.8,566.6h-1.5v-12.2h7.3v1.3h-5.8v4.4h5.3v1.3h-5.3V566.6z"/>
		<path class="st10" d="M304.6,590.7h4.5v1.3h-4.5V590.7z"/>
		<path class="st10" d="M316.4,584.4h7.8v1.3h-6.3v4.1h5.8v1.3h-5.8v4.2h6.4v1.3h-7.9V584.4z"/>
		<path class="st10" d="M328.9,591.9v4.7h-1.5v-12.2h3.7c2.4,0,4.2,1.1,4.2,3.8c0,2.6-1.8,3.8-4.3,3.8H328.9z M330.9,590.7
			c1.8,0,2.8-0.9,2.8-2.6c0-1.8-1-2.6-2.8-2.6h-2.1v5.2H330.9z"/>
		<path class="st10" d="M344.3,587.6c-0.1-1.2-0.8-2.3-2.5-2.3c-1.7,0-2.6,0.9-2.6,2.1c0,1.1,0.6,1.8,2,2l1.7,0.3
			c2.4,0.4,3.2,1.6,3.2,3.3c0,2.2-1.5,3.7-4.5,3.7c-2.8,0-4.4-1.5-4.6-3.7h1.6c0.2,1.3,1.1,2.5,3.1,2.5c2.2,0,2.9-1.1,2.9-2.4
			c0-1.1-0.6-1.8-2.1-2l-1.7-0.3c-2.4-0.4-3.2-1.7-3.2-3.3c0-2,1.6-3.4,4.1-3.4c2.6,0,3.9,1.4,4,3.5H344.3z"/>
		<path class="st10" d="M348.6,588.2h2v2h-2V588.2z M348.6,596.6v-2h2v2H348.6z"/>
		<path class="st10" d="M360.8,596.8c-2.6,0-3.8-1.9-3.8-4.4c0-2.5,1.3-4.5,3.8-4.5c2.5,0,3.5,2,3.5,4.1v0.7h-5.8
			c0.1,1.7,0.8,2.9,2.4,2.9c1.4,0,1.8-0.8,1.9-1.3h1.4C363.8,595.8,362.6,596.8,360.8,596.8z M362.8,591.5c0-1.4-0.6-2.5-2.1-2.5
			c-1.3,0-2.1,1.1-2.3,2.6L362.8,591.5L362.8,591.5z"/>
		<path class="st10" d="M368.3,592.2l-2.7-4.1h1.7l1.8,2.9h0l1.9-2.9h1.6l-2.7,4l2.9,4.4h-1.7l-2.1-3.3h0l-2.1,3.3h-1.6L368.3,592.2
			z"/>
		<path class="st10" d="M374.8,588.2h1.4v1.4h0c0.5-0.9,1.4-1.6,2.7-1.6c1.8,0,3.4,1.1,3.4,4.3c0,3.1-1.6,4.5-3.5,4.5
			c-1.2,0-2.2-0.7-2.5-1.4h0v4.2h-1.4V588.2z M378.6,595.7c1.5,0,2.2-1.2,2.2-3.4c0-1.8-0.5-3.2-2.3-3.2c-1.5,0-2.4,1.3-2.4,2.7v0.9
			C376.2,594.4,377,595.7,378.6,595.7z"/>
		<path class="st10" d="M384.1,592.4c0-2.6,1.4-4.4,3.8-4.4c2.5,0,3.8,1.8,3.8,4.4c0,2.6-1.4,4.4-3.8,4.4
			C385.4,596.8,384.1,595,384.1,592.4z M385.6,592.4c0,2.1,0.7,3.3,2.3,3.3c1.6,0,2.3-1.2,2.3-3.3c0-2-0.7-3.3-2.3-3.3
			C386.4,589.1,385.6,590.3,385.6,592.4z"/>
		<path class="st10" d="M394.1,588.2h1.4v1.6h0c0.4-0.9,1.4-1.7,2.7-1.7h0.1v1.5H398c-1.5,0-2.5,0.9-2.5,2.5v4.6h-1.4V588.2z"/>
		<path class="st10" d="M402.5,585.7v2.4h2.1v1.1h-2.1v5c0,0.9,0.4,1.2,1.3,1.2c0.4,0,0.9-0.1,0.9-0.1v1.2c0,0-0.6,0.1-1.3,0.1
			c-1.6,0-2.3-0.8-2.3-2.2v-5.2h-1.5v-1.1h0.3c1.1,0,1.4-0.3,1.4-1.9v-0.6H402.5z"/>
		<path class="st10" d="M415.6,591.4h-2.7v5.2h-1.5v-12.2h4.4c0.9,0,1.7,0.2,2.4,0.5c1,0.5,1.6,1.5,1.6,2.9c0,2.3-1.5,3.1-2.6,3.4v0
			l2.7,5.4h-1.7L415.6,591.4z M415.7,590.2c1.4,0,2.5-0.7,2.5-2.4c0-1.5-1-2.2-2.4-2.2h-2.9v4.6H415.7z"/>
		<path class="st10" d="M423.5,590.6c0,3.2,1.4,5.1,3.9,5.1c2.3,0,3.7-1.3,3.7-3.7v-0.2h-3.5v-1.3h5v6.2h-1.3v-1.8h-0.1
			c-0.6,1.1-1.8,2-3.8,2c-3.1,0-5.4-2-5.4-6.3c0-4,2.4-6.4,5.6-6.4c2.5,0,4.3,1.3,4.6,3.4h-1.6c-0.2-1.4-1.5-2.2-3.1-2.2
			C424.9,585.4,423.5,587.4,423.5,590.6z"/>
		<path class="st10" d="M436,596.6v-12.2h4.8c2.1,0,3.8,1,3.8,3c0,1.5-0.8,2.4-2.2,2.7v0c1.5,0.3,2.6,1.5,2.6,2.9
			c0,2.8-2.1,3.6-4.5,3.6H436z M440.5,589.5c1.3,0,2.5-0.5,2.5-2c0-1.3-0.9-1.9-2.3-1.9h-3.2v4H440.5z M440.4,595.4
			c1.8,0,3-0.6,3-2.4c0-1.6-1.2-2.2-3.1-2.2h-2.8v4.7H440.4z"/>
		<path class="st10" d="M454.2,598.7c-0.9-1.8-2.1-4.1-2.1-7.3c0-3.2,1.2-5.5,2.1-7.3h1.1c-0.9,2-1.7,4.1-1.7,7.3
			c0,3.3,0.8,5.4,1.7,7.3H454.2z"/>
		<path class="st10" d="M464.2,596.6h-1.4v-1.4h0c-0.4,0.8-1.4,1.6-2.7,1.6c-1.8,0-3.4-1.1-3.4-4.4c0-2.9,1.5-4.5,3.6-4.5
			c1.3,0,2.1,0.7,2.4,1.5h0V584h1.4V596.6z M462.8,592c0-1.8-0.9-2.9-2.3-2.9c-1.6,0-2.4,1.3-2.4,3.3c0,1.9,0.6,3.3,2.2,3.3
			c1.5,0,2.4-1.2,2.4-2.7V592z"/>
		<path class="st10" d="M467.3,584.7h1.5v1.6h-1.5V584.7z M467.4,588.2h1.5v8.4h-1.5V588.2z"/>
		<path class="st10" d="M471.4,597.4h1.4c0.2,0.7,0.7,1.2,2.1,1.2c1.6,0,2.4-0.6,2.4-2.4v-1.2h0c-0.4,0.8-1.4,1.6-2.7,1.6
			c-1.8,0-3.4-1.1-3.4-4.2c0-2.8,1.5-4.3,3.6-4.3c1.4,0,2.2,0.8,2.5,1.5h0v-1.3h1.4v8.2c0,2.4-1.6,3.4-3.8,3.4
			C473.3,599.8,471.6,599.2,471.4,597.4z M477.4,591.9c0-1.7-0.9-2.8-2.4-2.8c-1.5,0-2.2,1.3-2.2,3.2c0,1.9,0.5,3.1,2.3,3.1
			c1.4,0,2.3-1.2,2.3-2.6V591.9z"/>
		<path class="st10" d="M481.9,584.7h1.5v1.6h-1.5V584.7z M481.9,588.2h1.5v8.4h-1.5V588.2z"/>
		<path class="st10" d="M488.3,585.7v2.4h2.1v1.1h-2.1v5c0,0.9,0.4,1.2,1.3,1.2c0.4,0,0.9-0.1,0.9-0.1v1.2c0,0-0.6,0.1-1.3,0.1
			c-1.6,0-2.3-0.8-2.3-2.2v-5.2h-1.5v-1.1h0.3c1.1,0,1.4-0.3,1.4-1.9v-0.6H488.3z"/>
		<path class="st10" d="M492.8,590.5c0-1.5,1.2-2.5,3.2-2.5c2.1,0,3.1,0.9,3.1,3.1v3.4c0,0.7,0.1,0.9,0.8,1v1.2h-0.2
			c-1.3,0-1.8-0.5-1.9-1.5h0c-0.4,1-1.5,1.6-2.7,1.6c-1.7,0-2.7-0.9-2.7-2.4c0-0.9,0.4-1.7,1.3-2.1c0.9-0.5,2.2-0.6,4.1-0.7v-0.4
			c0-1.5-0.6-2.1-1.8-2.1c-1.2,0-1.7,0.7-1.8,1.4H492.8z M497.7,592.8v-0.2c-1.8,0.1-2.9,0.2-3.4,0.6c-0.3,0.2-0.5,0.6-0.5,1
			c0,0.9,0.6,1.3,1.5,1.3C496.4,595.6,497.7,594.9,497.7,592.8z"/>
		<path class="st10" d="M502.1,584h1.4v12.6h-1.4V584z"/>
		<path class="st10" d="M507.5,591.3c0-3.3-0.8-5.4-1.7-7.3h1.1c0.9,1.8,2.1,4.1,2.1,7.3c0,3.2-1.2,5.5-2.1,7.3h-1.1
			C506.7,596.7,507.5,594.6,507.5,591.3z"/>
		<path class="st10" d="M516.4,590.5c0-1.5,1.2-2.5,3.2-2.5c2.1,0,3.1,0.9,3.1,3.1v3.4c0,0.7,0.1,0.9,0.8,1v1.2h-0.2
			c-1.3,0-1.8-0.5-1.9-1.5h0c-0.4,1-1.5,1.6-2.7,1.6c-1.7,0-2.7-0.9-2.7-2.4c0-0.9,0.4-1.7,1.3-2.1c0.9-0.5,2.2-0.6,4.1-0.7v-0.4
			c0-1.5-0.6-2.1-1.8-2.1c-1.2,0-1.7,0.7-1.8,1.4H516.4z M521.3,592.8v-0.2c-1.8,0.1-2.9,0.2-3.4,0.6c-0.3,0.2-0.5,0.6-0.5,1
			c0,0.9,0.6,1.3,1.5,1.3C520,595.6,521.3,594.9,521.3,592.8z"/>
		<path class="st10" d="M531.1,591.4c0-0.6,0-1.3-0.3-1.7c-0.3-0.4-0.8-0.6-1.3-0.6c-1.6,0-2.3,1-2.3,2.4v5.1h-1.4v-8.4h1.4v1.4h0
			c0.4-0.9,1.4-1.6,2.7-1.6c1.6,0,2.7,0.8,2.7,2.8v5.9h-1.4V591.4z"/>
		<path class="st10" d="M542.4,596.6H541v-1.4h0c-0.4,0.8-1.4,1.6-2.7,1.6c-1.8,0-3.4-1.1-3.4-4.4c0-2.9,1.5-4.5,3.6-4.5
			c1.3,0,2.1,0.7,2.4,1.5h0V584h1.4V596.6z M541,592c0-1.8-0.9-2.9-2.3-2.9c-1.6,0-2.4,1.3-2.4,3.3c0,1.9,0.6,3.3,2.2,3.3
			c1.5,0,2.4-1.2,2.4-2.7V592z"/>
		<path class="st10" d="M551.2,590.5c0,3.2,1.4,5.1,3.9,5.1c2.2,0,3.1-1.5,3.2-2.8h1.5c-0.2,2.3-2,4.1-4.7,4.1
			c-3.2,0-5.4-2.1-5.4-6.3c0-4,2.3-6.3,5.5-6.3c2.1,0,4.4,1.1,4.7,3.8h-1.6c-0.2-1.2-1.2-2.6-3.1-2.6
			C552.6,585.4,551.2,587.4,551.2,590.5z"/>
		<path class="st10" d="M562.7,584.4h2.3l3.1,8.8c0.4,1.1,0.5,1.6,0.5,1.6h0c0,0,0.2-0.5,0.5-1.6l3.2-8.8h2.2v12.2H573v-10.5h0
			c0,0-0.2,0.6-0.7,1.9l-3.1,8.6h-1.4l-3-8.6c-0.4-1.3-0.7-1.9-0.7-1.9h0v10.5h-1.4V584.4z"/>
		<path class="st10" d="M580.9,591.4l-4.3-7h1.7l3.3,5.7h0l3.4-5.7h1.6l-4.3,6.9v5.3h-1.5V591.4z"/>
		<path class="st10" d="M590.1,596.6h-1.5v-12.2h1.5v6.3l5.7-6.3h1.8l-4.7,5.1l5,7.1h-1.8l-4.3-6l-1.8,2V596.6z"/>
		<path class="st10" d="M606.7,598.7c-0.9-1.8-2.1-4.1-2.1-7.3c0-3.2,1.2-5.5,2.1-7.3h1.1c-0.9,2-1.7,4.1-1.7,7.3
			c0,3.3,0.8,5.4,1.7,7.3H606.7z"/>
		<path class="st10" d="M610.1,588.2h1.4v1.4h0c0.5-0.9,1.4-1.6,2.7-1.6c1.8,0,3.4,1.1,3.4,4.3c0,3.1-1.6,4.5-3.5,4.5
			c-1.2,0-2.2-0.7-2.5-1.4h0v4.2h-1.4V588.2z M613.9,595.7c1.5,0,2.2-1.2,2.2-3.4c0-1.8-0.5-3.2-2.3-3.2c-1.5,0-2.4,1.3-2.4,2.7v0.9
			C611.5,594.4,612.3,595.7,613.9,595.7z"/>
		<path class="st10" d="M620,588.2h1.4v1.6h0c0.4-0.9,1.4-1.7,2.7-1.7h0.1v1.5h-0.3c-1.5,0-2.5,0.9-2.5,2.5v4.6H620V588.2z"/>
		<path class="st10" d="M626.4,584.7h1.5v1.6h-1.5V584.7z M626.4,588.2h1.5v8.4h-1.5V588.2z"/>
		<path class="st10" d="M636.4,591.4c0-0.6,0-1.3-0.3-1.7c-0.3-0.4-0.8-0.6-1.3-0.6c-1.6,0-2.3,1-2.3,2.4v5.1H631v-8.4h1.4v1.4h0
			c0.4-0.9,1.4-1.6,2.7-1.6c1.6,0,2.7,0.8,2.7,2.8v5.9h-1.4V591.4z"/>
		<path class="st10" d="M642.7,585.7v2.4h2.1v1.1h-2.1v5c0,0.9,0.4,1.2,1.3,1.2c0.4,0,0.9-0.1,0.9-0.1v1.2c0,0-0.6,0.1-1.3,0.1
			c-1.6,0-2.3-0.8-2.3-2.2v-5.2h-1.5v-1.1h0.3c1.1,0,1.4-0.3,1.4-1.9v-0.6H642.7z"/>
		<path class="st10" d="M648,591.3c0-3.3-0.8-5.4-1.7-7.3h1.1c0.9,1.8,2.1,4.1,2.1,7.3c0,3.2-1.2,5.5-2.1,7.3h-1.1
			C647.2,596.7,648,594.6,648,591.3z"/>
		<path class="st10" d="M656.1,588.2h1.5l1.8,5.4c0.2,0.7,0.4,1.3,0.4,1.3h0c0,0,0.2-0.6,0.4-1.3l1.9-5.4h1.4l-2.9,8.4H659
			L656.1,588.2z"/>
		<path class="st10" d="M668.5,596.8c-2.6,0-3.8-1.9-3.8-4.4c0-2.5,1.3-4.5,3.8-4.5c2.5,0,3.5,2,3.5,4.1v0.7h-5.8
			c0.1,1.7,0.8,2.9,2.4,2.9c1.4,0,1.8-0.8,1.9-1.3h1.4C671.6,595.8,670.3,596.8,668.5,596.8z M670.5,591.5c0-1.4-0.6-2.5-2.1-2.5
			c-1.3,0-2.1,1.1-2.3,2.6L670.5,591.5L670.5,591.5z"/>
		<path class="st10" d="M674.3,588.2h1.4v1.6h0c0.4-0.9,1.4-1.7,2.7-1.7h0.1v1.5h-0.3c-1.5,0-2.5,0.9-2.5,2.5v4.6h-1.4V588.2z"/>
		<path class="st10" d="M684.7,590.3c-0.1-0.8-0.7-1.2-1.7-1.2s-1.6,0.6-1.6,1.4c0,0.7,0.4,1,1.3,1.2l1.3,0.2c1.8,0.3,2.4,1,2.4,2.4
			c0,1.7-1.4,2.6-3.3,2.6c-1.7,0-3.2-0.8-3.3-2.6h1.4c0.1,0.7,0.4,1.5,1.9,1.5c1.2,0,1.9-0.5,1.9-1.4c0-0.7-0.2-1-1.3-1.2l-1.3-0.2
			c-1.5-0.2-2.3-0.9-2.3-2.3c0-1.5,1.1-2.6,3.1-2.6c1.8,0,2.9,0.8,3,2.3H684.7z"/>
		<path class="st10" d="M688.8,584.7h1.5v1.6h-1.5V584.7z M688.9,588.2h1.5v8.4h-1.5V588.2z"/>
		<path class="st10" d="M692.7,592.4c0-2.6,1.4-4.4,3.8-4.4c2.5,0,3.8,1.8,3.8,4.4c0,2.6-1.4,4.4-3.8,4.4
			C694,596.8,692.7,595,692.7,592.4z M694.2,592.4c0,2.1,0.7,3.3,2.3,3.3c1.6,0,2.3-1.2,2.3-3.3c0-2-0.7-3.3-2.3-3.3
			C695,589.1,694.2,590.3,694.2,592.4z"/>
		<path class="st10" d="M708.1,591.4c0-0.6,0-1.3-0.3-1.7c-0.3-0.4-0.8-0.6-1.3-0.6c-1.6,0-2.3,1-2.3,2.4v5.1h-1.4v-8.4h1.4v1.4h0
			c0.4-0.9,1.4-1.6,2.7-1.6c1.6,0,2.7,0.8,2.7,2.8v5.9h-1.4V591.4z"/>
		<path class="st10" d="M716.8,590.3c-0.1-0.8-0.7-1.2-1.7-1.2s-1.6,0.6-1.6,1.4c0,0.7,0.4,1,1.3,1.2l1.3,0.2c1.8,0.3,2.4,1,2.4,2.4
			c0,1.7-1.4,2.6-3.3,2.6c-1.7,0-3.2-0.8-3.3-2.6h1.4c0.1,0.7,0.4,1.5,1.9,1.5c1.2,0,1.9-0.5,1.9-1.4c0-0.7-0.2-1-1.3-1.2l-1.3-0.2
			c-1.5-0.2-2.3-0.9-2.3-2.3c0-1.5,1.1-2.6,3.1-2.6c1.8,0,2.9,0.8,3,2.3H716.8z"/>
		<path class="st10" d="M720.3,594.6h2v2h-2V594.6z"/>
	</g>
</g>
</svg>
